<svg width="201" height="159" viewBox="0 0 201 159" fill="none" xmlns="http://www.w3.org/2000/svg">
<g clip-path="url(#clip0_8_130)">
<path d="M146.837 366.885L188.674 347.224C188.674 347.224 205.762 261.914 204.952 194.634C203.81 100.069 153.262 -17.9457 79.2013 2.4347C5.14044 22.8151 101.715 127.115 118.231 208.637C134.747 290.159 146.837 366.885 146.837 366.885Z" fill="#A56BAA"/>
<path d="M146.837 366.885L188.674 347.224C188.674 347.224 205.762 261.914 204.952 194.634C203.81 100.069 153.262 -17.9457 79.2013 2.4347C5.14044 22.8151 101.715 127.115 118.231 208.637C134.747 290.159 146.837 366.885 146.837 366.885Z" fill="#A1BEE5"/>
<path d="M168.636 359.02C168.004 358.925 167.433 358.587 167.043 358.078C166.653 357.569 166.473 356.927 166.541 356.287C191.244 148.79 97.1926 34.9954 96.2883 33.7006C95.8767 33.206 95.6715 32.5698 95.7159 31.9259C95.7603 31.282 96.0508 30.6805 96.5263 30.2479C96.9925 29.8132 97.6044 29.5717 98.2397 29.5717C98.8751 29.5717 99.487 29.8132 99.9532 30.2479C100.905 31.3988 196.337 146.728 171.349 356.335C171.343 356.66 171.272 356.981 171.141 357.279C171.011 357.576 170.822 357.845 170.587 358.068C170.352 358.291 170.076 358.465 169.773 358.579C169.471 358.693 169.149 358.746 168.826 358.733L168.636 359.02Z" fill="white"/>
<path d="M120.468 379.305L150.311 365.254C150.311 365.254 160.163 306.511 137.46 232.23C117.755 167.54 60.0195 110.427 27.9868 118.531C-4.04593 126.635 -5.33105 149.126 7.9009 173.87C21.1328 198.614 108.997 262.441 120.468 379.305Z" fill="#A56BAA"/>
<path d="M120.468 379.305L150.311 365.254C150.311 365.254 160.163 306.511 137.46 232.23C117.755 167.54 60.0195 110.427 27.9868 118.531C-4.04593 126.635 -5.33105 149.126 7.9009 173.87C21.1328 198.614 108.997 262.441 120.468 379.305Z" fill="#A1BEE5"/>
<path d="M135.984 374.174C135.361 374.125 134.782 373.831 134.373 373.355C133.963 372.88 133.756 372.261 133.795 371.632C145.551 239.903 30.3668 140.398 29.0816 139.199C28.8379 138.992 28.6371 138.737 28.4908 138.451C28.3446 138.165 28.2556 137.853 28.2291 137.533C28.2026 137.212 28.239 136.889 28.3363 136.583C28.4336 136.276 28.5898 135.992 28.7961 135.747C29.0023 135.501 29.2546 135.299 29.5384 135.151C29.8223 135.004 30.1322 134.915 30.4504 134.888C30.7686 134.861 31.089 134.898 31.3931 134.996C31.6973 135.094 31.9793 135.251 32.223 135.459C33.3178 136.658 150.501 237.937 138.507 372.112C138.414 372.709 138.104 373.25 137.638 373.631C137.173 374.012 136.583 374.205 135.984 374.174Z" fill="white"/>
</g>
<defs>
<clipPath id="clip0_8_130">
<rect width="205" height="159" fill="white"/>
</clipPath>
</defs>
</svg>
