<svg width="279" height="244" viewBox="0 0 279 244" fill="none" xmlns="http://www.w3.org/2000/svg">
<g clip-path="url(#clip0_69_729)">
<path d="M222.485 72.7865L157.443 75.8176L210.788 86.1755C203.259 97.5008 193.335 107.033 181.718 114.098C181.718 114.098 144.583 110.404 120.047 115.322L165.468 126.884C165.468 126.884 162.518 136.279 152.006 146.034C151.223 146.757 150.381 147.5 149.538 148.243C143.76 153.06 133.769 162.796 120.488 173.415C108.972 182.782 96.5992 191.042 83.5332 198.085C77.0549 201.524 70.3523 204.521 63.4709 207.058L62.1869 207.559L62.0665 207.278C57.4959 197.376 55.0439 186.627 54.8677 175.721C54.6915 164.815 56.795 153.992 61.0434 143.947C65.4965 133.44 70.5127 123.181 76.07 113.214C125.042 26.4772 219.034 24.1888 279 43.8407C279 43.8407 247.061 52.8938 222.485 72.7865Z" fill="#A56BAA"/>
<path d="M222.485 72.7865L157.443 75.8176L210.788 86.1755C203.259 97.5008 193.335 107.033 181.718 114.098C181.718 114.098 144.583 110.404 120.047 115.322L165.468 126.884C165.468 126.884 162.518 136.279 152.006 146.034C151.223 146.757 150.381 147.5 149.538 148.243C143.76 153.06 133.769 162.796 120.488 173.415C108.972 182.782 96.5992 191.042 83.5332 198.085C77.0549 201.524 70.3523 204.521 63.4709 207.058L62.1869 207.559L62.0665 207.278C57.4959 197.376 55.0439 186.627 54.8677 175.721C54.6915 164.815 56.795 153.992 61.0434 143.947C65.4965 133.44 70.5127 123.181 76.07 113.214C125.042 26.4772 219.034 24.1888 279 43.8407C279 43.8407 247.061 52.8938 222.485 72.7865Z" fill="#A1BEE5"/>
<path d="M181.217 49.5007C173.993 50.7816 167 53.1361 160.472 56.4863C153.977 59.8293 147.74 63.654 141.814 67.9281C129.969 76.5347 119.11 86.4239 109.434 97.416C89.7884 119.153 75.5703 145.238 67.9451 173.534C67.8218 173.896 67.5606 174.194 67.2185 174.363C66.8764 174.532 66.4813 174.559 66.1195 174.438C65.793 174.324 65.5172 174.098 65.341 173.801C65.1647 173.503 65.0994 173.153 65.1565 172.812C73.2995 144.262 88.1039 118.056 108.351 96.3521C118.267 85.495 129.341 75.755 141.373 67.3059C147.405 63.1034 153.734 59.3464 160.312 56.0647C166.917 52.8542 173.962 50.6421 181.217 49.5007Z" fill="#FBFBFB"/>
<path d="M-61.3175 0.000244141C-60.6153 1.847 -47.1334 23.2051 -33.3908 79.1899L19.1123 110.524L-28.2749 100.869L-18.2437 144.288L26.7359 170.765L-13.0075 164C-13.0075 164 -15.0137 204.348 6.59339 228.897C18.6308 242.427 25.4319 246.221 31.3302 243.491C35.463 241.483 42.224 224.2 50.2088 209.366C58.1936 194.532 67.1414 168.998 62.828 133.087C61.6221 123.441 59.0413 114.018 55.1642 105.105C33.0154 53.1346 -27.8335 10.9403 -61.3175 0.000244141Z" fill="#A56BAA"/>
<path d="M-61.3175 0.000244141C-60.6153 1.847 -47.1334 23.2051 -33.3908 79.1899L19.1123 110.524L-28.2749 100.869L-18.2437 144.288L26.7359 170.765L-13.0075 164C-13.0075 164 -15.0137 204.348 6.59339 228.897C18.6308 242.427 25.4319 246.221 31.3302 243.491C35.463 241.483 42.224 224.2 50.2088 209.366C58.1936 194.532 67.1414 168.998 62.828 133.087C61.6221 123.441 59.0413 114.018 55.1642 105.105C33.0154 53.1346 -27.8335 10.9403 -61.3175 0.000244141Z" fill="#A1BEE5"/>
<path d="M47.3811 146.054C48.6592 160.929 47.7876 175.911 44.793 190.537C40.3009 208.741 34.6998 226.654 28.021 244.173C29.1488 244.14 30.2593 243.887 31.2911 243.431C35.4239 241.423 42.1849 224.14 50.1697 209.306C58.1545 194.472 67.1023 168.938 62.7889 133.027C61.5831 123.381 59.0023 113.958 55.1251 105.044C33.0566 53.1145 -27.8124 10.9202 -61.2361 0.000244141C-12.9462 25.8749 30.4084 78.7282 44.0708 127.627C45.6937 133.665 46.8011 139.829 47.3811 146.054Z" fill="#A1BEE5"/>
<path d="M-15.5337 33.6039C5.99317 53.3763 24.7313 76.8421 36.528 104.062C42.582 117.586 46.4618 131.982 48.0237 146.718C49.4181 161.449 48.3674 176.31 44.914 190.699C44.8904 190.715 44.8624 190.724 44.8337 190.724C44.8051 190.724 44.777 190.715 44.7535 190.699C44.7182 190.689 44.687 190.669 44.6651 190.639C44.6433 190.61 44.632 190.574 44.6331 190.538C46.6387 176.105 46.8207 161.477 45.1748 146.999C43.4924 132.529 39.8756 118.351 34.4214 104.845C28.8058 91.3729 21.6206 78.6117 13.015 66.8255C4.42157 54.9812 -5.19876 43.9181 -15.7343 33.7645C-15.7609 33.7379 -15.7758 33.7018 -15.7758 33.6642C-15.7758 33.6265 -15.7609 33.5904 -15.7343 33.5638C-15.7077 33.5372 -15.6716 33.5222 -15.634 33.5222C-15.5964 33.5222 -15.5603 33.5372 -15.5337 33.5638V33.6039Z" fill="#FBFBFB"/>
<path d="M249.848 189.354C246.341 186.741 242.676 184.348 238.874 182.188C223.917 173.763 207.972 167.229 191.406 162.737C185.388 161.03 178.988 159.565 172.588 158.381C169.378 157.799 166.148 157.277 162.918 156.855C147.027 154.508 130.856 154.827 115.069 157.799C107.637 159.324 100.421 161.758 93.5825 165.045C92.6998 165.467 91.797 165.868 90.9343 166.33C88.7074 167.514 86.5808 168.739 84.5143 169.983C61.0013 183.673 50.1075 197.122 39.4344 213.041C31.1487 225.406 25.2504 242.127 25.9726 246.081C26.0598 246.617 26.2219 247.137 26.4541 247.627C28.2998 252.284 34.6596 254.974 49.0041 256.66C77.7935 260.053 106.804 236.868 106.804 236.868L81.8862 211.435L123.636 230.605L155.134 218.24L131.48 193.569L172.668 214.787C220.135 196.52 248.062 189.776 249.767 189.354H249.848Z" fill="#A1BEE5"/>
<path d="M28.0402 249.996C37.1561 235.564 48.1082 222.379 60.6214 210.772C73.0507 198.891 87.2674 189.035 102.752 181.566C110.636 178.087 118.887 175.508 127.349 173.877C135.758 172.133 144.29 171.045 152.868 170.626C169.983 169.826 187.129 171.325 203.846 175.082C203.867 175.107 203.879 175.139 203.879 175.172C203.879 175.205 203.867 175.237 203.846 175.263C203.824 175.282 203.795 175.293 203.766 175.293C203.736 175.293 203.708 175.282 203.686 175.263C186.873 172.929 169.868 172.297 152.928 173.376C144.494 173.904 136.1 174.936 127.79 176.467C119.482 177.892 111.36 180.241 103.575 183.473C88.1939 190.594 74.0195 200.076 61.5643 211.575C48.8354 222.885 37.6273 235.8 28.2208 249.996C28.1911 250.016 28.1562 250.026 28.1205 250.026C28.0847 250.026 28.0499 250.016 28.0202 249.996H28.0402Z" fill="#FBFBFB"/>
</g>
<defs>
<clipPath id="clip0_69_729">
<rect width="279" height="244" fill="white" transform="matrix(-1 0 0 1 279 0)"/>
</clipPath>
</defs>
</svg>
