<svg width="300" height="252" viewBox="0 0 300 252" fill="none" xmlns="http://www.w3.org/2000/svg">
<g clip-path="url(#clip0_28_667)">
<path d="M53.9529 138.668L99.274 150.048L64.7708 131.862C72.2968 125.615 81.0957 121.101 90.5455 118.637C90.5455 118.637 115.295 128.873 133.175 130.565L104.368 113.19C104.368 113.19 108.345 107.325 117.595 102.779C118.283 102.443 119.016 102.105 119.75 101.768C124.72 99.6439 133.608 95.0029 144.939 90.4345C154.798 86.3629 165.015 83.2323 175.456 81.0841C180.622 80.0556 185.85 79.3775 191.105 79.0545L192.092 78.9745L192.116 79.1931C193.2 86.9647 192.652 94.8809 190.507 102.434C188.363 109.987 184.669 117.011 179.664 123.055C174.421 129.374 168.844 135.406 162.955 141.124C111.288 190.764 46.2291 172.877 9.10736 146.914C9.10736 146.914 32.9339 147.289 53.9529 138.668Z" fill="#A56BAA"/>
<path d="M53.9529 138.668L99.274 150.048L64.7708 131.862C72.2968 125.615 81.0957 121.101 90.5455 118.637C90.5455 118.637 115.295 128.873 133.175 130.565L104.368 113.19C104.368 113.19 108.345 107.325 117.595 102.779C118.283 102.443 119.016 102.105 119.75 101.768C124.72 99.6439 133.608 95.0029 144.939 90.4345C154.798 86.3629 165.015 83.2323 175.456 81.0841C180.622 80.0556 185.85 79.3775 191.105 79.0545L192.092 78.9745L192.116 79.1931C193.2 86.9647 192.652 94.8809 190.507 102.434C188.363 109.987 184.669 117.011 179.664 123.055C174.421 129.374 168.844 135.406 162.955 141.124C111.288 190.764 46.2291 172.877 9.10736 146.914C9.10736 146.914 32.9339 147.289 53.9529 138.668Z" fill="#A1BEE5"/>
<path d="M77.4707 163.263C82.7006 163.876 87.9941 163.701 93.1756 162.744C98.3334 161.785 103.413 160.441 108.373 158.722C118.3 155.243 127.815 150.676 136.747 145.104C154.761 134.19 169.949 119.156 181.066 101.233C181.226 101.009 181.467 100.858 181.738 100.813C182.008 100.767 182.285 100.83 182.508 100.988C182.709 101.134 182.852 101.347 182.911 101.589C182.97 101.83 182.942 102.085 182.832 102.309C171.307 120.299 155.691 135.295 137.27 146.061C128.201 151.491 118.569 155.911 108.547 159.242C103.529 160.889 98.3995 162.168 93.1983 163.068C87.9927 163.913 82.6924 163.978 77.4707 163.263Z" fill="#FBFBFB"/>
<path d="M233.84 247.606C233.741 246.187 228.914 228.675 231.1 187.243L201.533 154.774L232.088 171.242L234.215 139.239L208.808 111.676L234.712 124.569C234.712 124.569 244.471 97.1758 234.724 75.781C229.263 63.9634 225.378 59.9401 220.758 60.6002C217.502 61.1279 209.266 71.6397 200.698 80.2103C192.13 88.7809 180.678 104.526 176.182 130.17C175.007 137.068 174.823 144.097 175.636 151.043C180.059 191.449 213.105 233.131 233.84 247.606Z" fill="#A56BAA"/>
<path d="M233.84 247.606C233.741 246.187 228.914 228.675 231.1 187.243L201.533 154.774L232.088 171.242L234.215 139.239L208.808 111.676L234.712 124.569C234.712 124.569 244.471 97.1758 234.724 75.781C229.263 63.9634 225.378 59.9401 220.758 60.6002C217.502 61.1279 209.266 71.6397 200.698 80.2103C192.13 88.7809 180.678 104.526 176.182 130.17C175.007 137.068 174.823 144.097 175.636 151.043C180.059 191.449 213.105 233.131 233.84 247.606Z" fill="#A1BEE5"/>
<path d="M189.488 124.431C191.7 113.915 195.411 103.769 200.507 94.3088C207.375 82.6923 214.944 71.5067 223.172 60.8148C222.39 60.6045 221.575 60.5484 220.771 60.6495C217.514 61.1772 209.279 71.689 200.711 80.2596C192.143 88.8302 180.691 104.575 176.195 130.22C175.02 137.117 174.836 144.146 175.649 151.093C180.025 191.454 213.085 233.141 233.783 247.588C205.977 219.755 187.166 174.349 187.935 137.817C188.074 133.32 188.594 128.842 189.488 124.431Z" fill="#A1BEE5"/>
<path d="M209.359 214.963C198.674 196.878 190.673 176.824 188.222 155.621C186.871 145.046 187.196 134.321 189.183 123.841C191.285 113.399 195.094 103.374 200.456 94.1723C200.475 94.1659 200.496 94.1656 200.516 94.1716C200.536 94.1775 200.553 94.1894 200.566 94.2056C200.588 94.2192 200.606 94.24 200.614 94.2647C200.623 94.2893 200.624 94.3163 200.615 94.3412C196.239 103.873 193.076 113.918 191.199 124.237C189.35 134.558 188.89 145.079 189.832 155.518C190.892 165.966 193.178 176.249 196.643 186.154C200.088 196.097 204.4 205.714 209.53 214.894C209.543 214.918 209.545 214.946 209.538 214.972C209.53 214.998 209.512 215.02 209.488 215.033C209.464 215.045 209.436 215.048 209.411 215.041C209.385 215.033 209.363 215.015 209.35 214.991L209.359 214.963Z" fill="#FBFBFB"/>
<path d="M59.3639 52.6604C61.231 55.1873 63.2522 57.5957 65.4158 59.8721C73.9428 68.776 83.5414 76.5811 93.9912 83.1081C97.7723 85.5305 101.865 87.8658 106.017 90.0074C108.102 91.0733 110.213 92.1019 112.344 93.0614C122.776 97.9701 133.954 101.099 145.418 102.32C150.842 102.808 156.306 102.625 161.687 101.775C162.381 101.667 163.085 101.578 163.774 101.438C165.55 101.083 167.265 100.679 168.944 100.25C187.944 95.6833 198.223 88.6698 208.863 79.9088C217.125 73.1023 224.651 62.7992 224.976 59.9241C225.027 59.5371 225.024 59.1449 224.966 58.7591C224.666 55.1671 220.854 51.9962 211.348 47.8635C192.271 39.5635 167.522 49.5354 167.522 49.5354L179.36 72.2244L154.655 50.3662L130.444 52.3658L141.572 74.2674L117.678 51.1142C81.2683 53.8743 60.6784 52.7396 59.4191 52.677L59.3639 52.6604Z" fill="#A1BEE5"/>
<path d="M224.368 56.7975C215.107 64.8565 204.842 71.6758 193.833 77.0841C182.825 82.6993 171.009 86.548 158.818 88.4894C152.678 89.2542 146.473 89.3231 140.32 88.6946C134.179 88.1558 128.091 87.1383 122.11 85.6512C110.183 82.6581 98.7137 78.0745 88.0073 72.0229C87.9979 72.001 87.9966 71.9766 88.0035 71.9538C88.0103 71.931 88.025 71.9114 88.0448 71.8984C88.0641 71.8893 88.086 71.8877 88.1063 71.8938C88.1267 71.9 88.144 71.9134 88.1551 71.9316C99.2228 77.0216 110.776 80.9789 122.64 83.7433C128.544 85.1259 134.526 86.1528 140.555 86.8185C146.559 87.5569 152.628 87.6194 158.649 87.0047C170.696 85.2817 182.405 81.6819 193.352 76.3354C204.448 71.1765 214.832 64.5965 224.244 56.7601C224.268 56.7526 224.295 56.7525 224.319 56.7599C224.344 56.7673 224.365 56.7818 224.382 56.8017L224.368 56.7975Z" fill="#FBFBFB"/>
</g>
<defs>
<clipPath id="clip0_28_667">
<rect width="257.533" height="185" fill="white" transform="matrix(0.957461 0.288564 0.288564 -0.957461 0 177.13)"/>
</clipPath>
</defs>
</svg>
