<svg width="25" height="235" viewBox="0 0 25 235" fill="none" xmlns="http://www.w3.org/2000/svg">
<path d="M7.00009 231.1C7.00009 224.47 10.2901 221.34 14.4601 217.38C18.9801 213.08 24.1001 208.21 24.1001 198.58C24.1001 188.95 18.9801 184.08 14.4601 179.78C10.2901 175.78 7.00009 172.69 7.00009 166.06C7.00009 159.43 10.2901 156.31 14.4601 152.34C18.9801 148.05 24.1001 143.18 24.1001 133.55C24.1001 123.92 18.9801 119.05 14.4601 114.75C10.2901 110.75 7.00009 107.66 7.00009 101.03C7.00009 94.4 10.2901 91.28 14.4601 87.31C18.9801 83 24.1001 78.15 24.1001 68.52C24.1001 58.89 18.9801 54 14.4601 49.73C10.2901 45.73 7.0001 42.63 7.0001 36.01C7.0001 29.39 10.2901 26.25 14.4601 22.29C18.9801 18 24.1001 13.13 24.1001 3.5C24.1001 2.57174 23.7313 1.6815 23.075 1.02513C22.4186 0.368749 21.5284 -1.12414e-07 20.6001 -1.5299e-07C19.6718 -1.93565e-07 18.7816 0.368749 18.1252 1.02513C17.4688 1.6815 17.1001 2.57174 17.1001 3.5C17.1001 10.12 13.8101 13.25 9.6401 17.22C5.1001 21.51 9.61217e-05 26.38 9.57012e-05 36C9.52807e-05 45.62 5.1001 50.51 9.6401 54.8C13.8101 58.76 17.1001 61.89 17.1001 68.52C17.1001 75.15 13.8101 78.28 9.64009 82.24C5.10009 86.54 9.32796e-05 91.4 9.28599e-05 101C9.24403e-05 110.6 5.12009 115.5 9.64009 119.8C13.8101 123.8 17.1001 126.89 17.1001 133.52C17.1001 140.15 13.8101 143.28 9.64009 147.24C5.12009 151.53 9.04383e-05 156.4 9.00174e-05 166.03C8.95964e-05 175.66 5.12009 180.53 9.64009 184.83C13.8101 188.82 17.1001 192 17.1001 198.58C17.1001 205.16 13.8101 208.34 9.64009 212.3C5.12009 216.6 8.7594e-05 221.47 8.71731e-05 231.1C8.71325e-05 232.028 0.368837 232.919 1.02521 233.575C1.68159 234.231 2.57183 234.6 3.50009 234.6C4.42834 234.6 5.31858 234.231 5.97496 233.575C6.63134 232.919 7.00009 232.028 7.00009 231.1Z" fill="#A1BEE5"/>
</svg>
