<svg width="863" height="227" viewBox="0 0 863 227" fill="none" xmlns="http://www.w3.org/2000/svg">
<path d="M393.431 -1.52588e-05C363.211 -1.52588e-05 334.355 18.8915 316.612 38.0991C301.404 54.5107 289.486 73.8398 277.934 92.5612C270.623 104.353 263.141 116.534 254.879 127.864C198.19 205.667 95.9024 249.723 0.29246 237.615L0 240.022C48.7891 245.88 98.2603 238.576 143.257 218.869C188.467 199.68 227.694 168.749 256.853 129.299C265.164 117.896 272.719 105.666 280.006 93.8255C291.485 75.2257 303.354 55.9938 318.391 39.7281C339.911 16.5088 377.931 -6.46739 414.391 5.68932C436.837 13.1535 453.386 32.1423 469.227 50.4989C486.629 70.5818 504.639 91.3455 530.498 96.9133C558.184 102.87 584.432 89.3275 609.827 76.2225C632.834 64.3333 656.645 52.055 681.626 54.0487C718.964 57.1122 746.065 90.1785 768.609 120.911L861.05 247L863 245.566L770.583 119.476C747.698 88.3063 720.109 54.7781 681.821 51.7389C656.085 49.6966 632.03 62.1208 608.706 74.1559C582.531 87.6499 557.818 100.414 530.985 94.6278C505.931 89.2302 488.993 69.6822 471.055 49.0158C454.897 30.3918 438.227 11.1598 415.147 3.47679C408.143 1.15836 400.81 -0.0157013 393.431 -1.52588e-05Z" fill="white"/>
</svg>
