<svg width="90" height="84" viewBox="0 0 90 84" fill="none" xmlns="http://www.w3.org/2000/svg">
<g clip-path="url(#clip0_23_422)">
<path d="M80.5825 28.4618V26.0869H9.41671V28.4618H80.5825ZM1.53457 72.4799H6.34859V65.606C6.34859 65.1953 6.51021 64.8013 6.79791 64.5109C7.0856 64.2204 7.47579 64.0572 7.88265 64.0572H12.1525V31.5576H7.88265C7.47579 31.5576 7.0856 31.3944 6.79791 31.104C6.51021 30.8135 6.34859 30.4196 6.34859 30.0088V26.0869H1.53639C1.18048 26.0875 0.83545 25.9631 0.560411 25.735C0.285372 25.5069 0.0974373 25.1894 0.0287994 24.8368C-0.0398386 24.4842 0.0150917 24.1185 0.184181 23.8023C0.35327 23.4861 0.625995 23.2391 0.95564 23.1036L44.2947 0.184615C44.5127 0.0692806 44.7552 0.0090332 45.0014 0.0090332C45.2476 0.0090332 45.4901 0.0692806 45.7082 0.184615L89.1732 23.1792C89.4754 23.3395 89.7158 23.5973 89.8561 23.9115C89.9963 24.2257 90.0283 24.5783 89.947 24.9131C89.8657 25.2478 89.6757 25.5455 89.4074 25.7585C89.1391 25.9716 88.8078 26.0879 88.4665 26.0888H83.6524V30.018C83.6519 30.4286 83.4902 30.8223 83.2026 31.1127C82.915 31.403 82.5251 31.5663 82.1184 31.5668H77.8504V64.0572H82.1184C82.5251 64.0577 82.915 64.221 83.2026 64.5114C83.4902 64.8018 83.6519 65.1954 83.6524 65.606V72.4799H88.4665C88.8733 72.4799 89.2635 72.6431 89.5512 72.9335C89.8389 73.224 90.0005 73.6179 90.0005 74.0287V82.4514C90.0005 82.8622 89.8389 83.2561 89.5512 83.5466C89.2635 83.8371 88.8733 84.0002 88.4665 84.0002H1.53457C1.12771 84.0002 0.737513 83.8371 0.449821 83.5466C0.162129 83.2561 0.000505406 82.8622 0.000505406 82.4514V74.0287C0.000505406 73.6179 0.162129 73.224 0.449821 72.9335C0.737513 72.6431 1.12771 72.4799 1.53457 72.4799ZM86.9306 75.5776H3.06862V80.9026H86.9306V75.5776ZM23.541 64.0572H39.3053V31.5576H23.5428L23.541 64.0572ZM50.6939 64.0572H66.4582V31.5576H50.6957L50.6939 64.0572ZM80.5825 67.1549H9.41854V72.4799H80.5843L80.5825 67.1549ZM82.248 22.9893L44.9923 3.28412L7.75664 22.9893H82.248ZM20.4766 31.5576H15.2224V64.0572H20.4766V31.5576ZM74.7841 31.5576H69.5299V64.0572H74.7841V31.5576ZM47.6294 31.5576H42.3698V64.0572H47.6294V31.5576Z" fill="black"/>
</g>
<defs>
<clipPath id="clip0_23_422">
<rect width="90" height="84" fill="white"/>
</clipPath>
</defs>
</svg>
