<svg width="84" height="84" viewBox="0 0 84 84" fill="none" xmlns="http://www.w3.org/2000/svg">
<g clip-path="url(#clip0_23_336)">
<path d="M65.5045 64.2588C63.8841 64.2633 62.2789 63.9464 60.7817 63.3264C59.2846 62.7064 57.9254 61.7956 56.7826 60.6466L44.1843 48.0483C43.7388 47.6205 43.1451 47.3816 42.5274 47.3816C41.9097 47.3816 41.3159 47.6205 40.8704 48.0483L28.2247 60.6941C27.0819 61.843 25.7227 62.7538 24.2255 63.3738C22.7284 63.9939 21.1232 64.3108 19.5028 64.3062H17.0156L32.9753 80.2659C35.3693 82.6574 38.6148 84.0008 41.9988 84.0008C45.3827 84.0008 48.6282 82.6574 51.0222 80.2659L67.0226 64.2588H65.5045Z" fill="#32BCAD"/>
<path d="M19.5038 19.6937C21.1242 19.6891 22.7295 20.006 24.2266 20.626C25.7237 21.246 27.083 22.1568 28.2257 23.3058L40.8714 35.9515C41.3111 36.3906 41.907 36.6372 42.5284 36.6372C43.1498 36.6372 43.7457 36.3906 44.1854 35.9515L56.7837 23.3532C57.9264 22.2043 59.2856 21.2935 60.7828 20.6734C62.2799 20.0534 63.8851 19.7365 65.5056 19.7411H67.0236L51.0233 3.74077C49.8388 2.55496 48.4321 1.61426 46.8838 0.972428C45.3355 0.330601 43.6759 0.000244141 41.9998 0.000244141C40.3237 0.000244141 38.6641 0.330601 37.1158 0.972428C35.5675 1.61426 34.1608 2.55496 32.9763 3.74077L17.0234 19.6937H19.5038Z" fill="#32BCAD"/>
<path d="M80.2656 32.9765L70.5949 23.3058C70.3801 23.3959 70.1501 23.4442 69.9172 23.4481H65.5122C63.2257 23.4553 61.0342 24.3635 59.413 25.9759L46.8079 38.5742C45.6732 39.7073 44.1352 40.3437 42.5317 40.3437C40.9281 40.3437 39.3901 39.7073 38.2554 38.5742L25.6097 25.9285C23.9876 24.3173 21.7966 23.4093 19.5104 23.4007H14.0889C13.8562 23.4012 13.6258 23.3551 13.4112 23.2651L3.74053 32.9765C2.55472 34.161 1.61401 35.5676 0.972184 37.1159C0.330357 38.6642 0 40.3239 0 41.9999C0 43.676 0.330357 45.3357 0.972184 46.884C1.61401 48.4323 2.55472 49.8389 3.74053 51.0234L13.4451 60.7348C13.6597 60.6448 13.8901 60.5987 14.1228 60.5992H19.5443C21.8305 60.5906 24.0215 59.6826 25.6436 58.0714L38.2554 45.4054C39.4076 44.3059 40.939 43.6924 42.5317 43.6924C44.1243 43.6924 45.6557 44.3059 46.8079 45.4054L59.4062 58.024C61.0251 59.6407 63.2175 60.5518 65.5054 60.5586H69.8969C70.1293 60.5601 70.3594 60.6061 70.5746 60.6941L80.2452 51.0234C82.6368 48.6294 83.9802 45.3839 83.9802 41.9999C83.9802 38.616 82.6368 35.3705 80.2452 32.9765H80.2656Z" fill="#32BCAD"/>
</g>
<defs>
<clipPath id="clip0_23_336">
<rect width="84" height="84" fill="white"/>
</clipPath>
</defs>
</svg>
