<svg width="146" height="77" viewBox="0 0 146 77" fill="none" xmlns="http://www.w3.org/2000/svg">
<g clip-path="url(#clip0_243_361)">
<path d="M37.4867 3.26966C37.4867 2.84706 37.3202 2.44177 37.0238 2.14295C36.7273 1.84413 36.3253 1.67625 35.9061 1.67625C35.4869 1.67625 35.0848 1.84413 34.7884 2.14295C34.492 2.44177 34.3255 2.84706 34.3255 3.26966C34.4659 13.5262 38.6089 23.314 45.8572 30.513C53.1054 37.712 62.8753 41.7426 73.0505 41.7317C83.2257 41.7208 92.987 37.6693 100.22 30.4548C107.453 23.2402 111.576 13.4436 111.694 3.18681L111.694 3.03384C111.694 2.61124 111.528 2.20595 111.231 1.90713C110.935 1.60831 110.533 1.44043 110.114 1.44043C109.694 1.44043 109.292 1.60831 108.996 1.90713C108.7 2.20595 108.533 2.61124 108.533 3.03384L108.533 3.18681C108.424 12.6024 104.642 21.5959 98.0036 28.2207C91.3657 34.8454 82.4067 38.5683 73.066 38.5833C63.7254 38.5984 54.7546 34.9045 48.0957 28.3012C41.4367 21.698 37.6254 12.7167 37.4867 3.30153L37.4867 3.26966Z" fill="white"/>
<path d="M146 3.41627L146 3.18682C146 2.34162 145.667 1.53104 145.074 0.933399C144.481 0.335753 143.677 -1.01538e-07 142.839 -1.38186e-07C142 -1.74835e-07 141.196 0.335753 140.603 0.933398C140.01 1.53104 139.677 2.34162 139.677 3.18682L139.677 3.41627C139.704 21.2432 132.705 38.3507 120.22 50.9754C107.734 63.6 90.785 70.7077 73.1011 70.7347C55.4171 70.7618 38.4468 63.706 25.9234 51.1196C13.3999 38.5332 6.3493 21.4471 6.32246 3.62022C6.32246 2.77503 5.98941 1.96445 5.39656 1.3668C4.80371 0.769155 3.99962 0.433402 3.16121 0.433402C2.32278 0.433402 1.51869 0.769155 0.925842 1.3668C0.332992 1.96445 -6.11565e-05 2.77503 -6.11934e-05 3.62022C0.0267629 23.1375 7.74354 41.8447 21.4527 55.6264C35.1618 69.4081 53.7403 77.1354 73.1011 77.1083C92.4619 77.0813 111.019 69.3021 124.69 55.4822C138.361 41.6623 146.027 22.9336 146 3.41627Z" fill="#A1BEE5"/>
</g>
<defs>
<clipPath id="clip0_243_361">
<rect width="77" height="146" fill="white" transform="translate(146) rotate(90)"/>
</clipPath>
</defs>
</svg>
