<svg width="73" height="135" viewBox="0 0 73 135" fill="none" xmlns="http://www.w3.org/2000/svg">
<g clip-path="url(#clip0_1_1137)">
<path d="M52.2882 130.578L67.1866 123.578C67.1866 123.578 73.2713 93.2041 72.9832 69.25C72.5764 35.5811 54.5764 -6.43676 28.2035 0.819468C1.83061 8.0757 36.2204 45.2105 42.1018 74.2354C47.9832 103.26 52.2882 130.578 52.2882 130.578Z" fill="#A56BAA"/>
<path d="M52.2882 130.578L67.1866 123.578C67.1866 123.578 73.2713 93.2041 72.9832 69.25C72.5764 35.5811 54.5764 -6.43676 28.2035 0.819468C1.83061 8.0757 36.2204 45.2105 42.1018 74.2354C47.9832 103.26 52.2882 130.578 52.2882 130.578Z" fill="#A1BEE5"/>
<path d="M60.0512 127.778C59.8262 127.744 59.623 127.624 59.484 127.442C59.345 127.261 59.281 127.032 59.3054 126.805C68.102 52.9276 34.6105 12.4123 34.2885 11.9513C34.1419 11.7752 34.0688 11.5487 34.0846 11.3194C34.1004 11.0902 34.2039 10.876 34.3732 10.722C34.5392 10.5672 34.7571 10.4812 34.9834 10.4812C35.2096 10.4812 35.4275 10.5672 35.5935 10.722C35.9325 11.1317 69.9156 52.1935 61.0173 126.822C61.0151 126.937 60.99 127.052 60.9435 127.158C60.8969 127.264 60.8298 127.359 60.7462 127.439C60.6625 127.518 60.564 127.58 60.4563 127.621C60.3486 127.661 60.2339 127.68 60.119 127.675L60.0512 127.778Z" fill="white"/>
<path d="M42.8985 135L53.5256 129.997C53.5256 129.997 57.0341 109.082 48.9494 82.6356C41.9324 59.6035 21.3731 39.269 9.96631 42.1544C-1.44047 45.0398 -1.8981 53.0473 2.81377 61.8572C7.52563 70.6671 38.8138 93.3919 42.8985 135Z" fill="#A56BAA"/>
<path d="M42.8985 135L53.5256 129.997C53.5256 129.997 57.0341 109.082 48.9494 82.6356C41.9324 59.6035 21.3731 39.269 9.96631 42.1544C-1.44047 45.0398 -1.8981 53.0473 2.81377 61.8572C7.52563 70.6671 38.8138 93.3919 42.8985 135Z" fill="#A1BEE5"/>
<path d="M48.4237 133.173C48.2018 133.156 47.9957 133.051 47.8498 132.882C47.7039 132.712 47.63 132.492 47.644 132.268C51.8305 85.3673 10.8135 49.9398 10.3559 49.513C10.2691 49.439 10.1976 49.3485 10.1455 49.2467C10.0934 49.1448 10.0618 49.0337 10.0523 48.9195C10.0429 48.8054 10.0558 48.6905 10.0905 48.5814C10.1251 48.4723 10.1807 48.3711 10.2542 48.2837C10.3277 48.1962 10.4175 48.1242 10.5186 48.0718C10.6196 48.0193 10.73 47.9874 10.8433 47.9779C10.9566 47.9684 11.0707 47.9814 11.179 48.0163C11.2873 48.0512 11.3877 48.1072 11.4745 48.1812C11.8644 48.6081 53.5932 84.6673 49.322 132.439C49.2888 132.651 49.1786 132.844 49.0127 132.98C48.8468 133.115 48.637 133.184 48.4237 133.173Z" fill="white"/>
</g>
<defs>
<clipPath id="clip0_1_1137">
<rect width="73" height="135" fill="white"/>
</clipPath>
</defs>
</svg>
