<svg width="228" height="359" viewBox="0 0 228 359" fill="none" xmlns="http://www.w3.org/2000/svg">
<g clip-path="url(#clip0_65_648)">
<path d="M77.6849 213.928L118.531 176.717L92.7294 214.936C104.036 217.207 115.705 216.966 126.911 214.23C126.911 214.23 146.98 189.733 164.651 177.958L144.327 212.144C144.327 212.144 151.728 216.006 163.885 215.546C164.787 215.51 165.738 215.449 166.689 215.389C173.044 214.81 184.875 214.65 199.21 213.046C211.736 211.752 224.112 209.279 236.174 205.66C242.123 203.834 247.941 201.609 253.591 199L254.662 198.531L254.566 198.29C251.373 189.611 246.401 181.697 239.969 175.053C233.537 168.41 225.787 163.184 217.216 159.712C208.245 156.086 199.085 152.946 189.776 150.306C108.396 127.697 50.6234 182.726 26.4208 230.489C26.4208 230.489 51.0129 216.751 77.6849 213.928Z" fill="#A56BAA"/>
<path d="M77.6849 213.928L118.531 176.717L92.7294 214.936C104.036 217.207 115.705 216.966 126.911 214.23C126.911 214.23 146.98 189.733 164.651 177.958L144.327 212.144C144.327 212.144 151.728 216.006 163.885 215.546C164.787 215.51 165.738 215.449 166.689 215.389C173.044 214.81 184.875 214.65 199.21 213.046C211.736 211.752 224.112 209.279 236.174 205.66C242.123 203.834 247.941 201.609 253.591 199L254.662 198.531L254.566 198.29C251.373 189.611 246.401 181.697 239.969 175.053C233.537 168.41 225.787 163.184 217.216 159.712C208.245 156.086 199.085 152.946 189.776 150.306C108.396 127.697 50.6234 182.726 26.4208 230.489C26.4208 230.489 51.0129 216.751 77.6849 213.928Z" fill="#A1BEE5"/>
<path d="M88.4902 175.207C93.5929 171.64 99.2 168.856 105.126 166.947C111.027 165.053 117.062 163.603 123.18 162.61C135.447 160.661 147.892 160.073 160.287 160.856C185.106 162.098 209.274 169.203 230.812 181.59C231.102 181.733 231.438 181.754 231.744 181.651C232.051 181.547 232.304 181.326 232.449 181.036C232.577 180.772 232.607 180.471 232.534 180.187C232.462 179.903 232.291 179.654 232.052 179.483C210.052 167.256 185.459 160.43 160.299 159.568C147.84 159.011 135.357 159.817 123.072 161.972C116.934 163.072 110.883 164.618 104.969 166.598C99.0809 168.637 93.5275 171.538 88.4902 175.207Z" fill="#FBFBFB"/>
<path d="M204.349 4.75963e-05C205.035 1.52844 209.748 22.4215 235.062 64.2281L222.341 114.516L244.988 80.2936L264.996 112.34L253.878 155.202L273.671 127.299C273.671 127.299 299.061 150.281 300.812 177.963C301.699 193.297 299.892 199.652 294.717 201.555C291.033 202.831 276.616 196.528 262.932 192.427C249.248 188.326 228.573 178.389 209.634 154.273C204.576 147.768 200.476 140.57 197.459 132.901C179.596 88.4566 190.815 26.6503 204.349 4.75963e-05Z" fill="#A56BAA"/>
<path d="M204.349 4.75963e-05C205.035 1.52844 209.748 22.4215 235.062 64.2281L222.341 114.516L244.988 80.2936L264.996 112.34L253.878 155.202L273.671 127.299C273.671 127.299 299.061 150.281 300.812 177.963C301.699 193.297 299.892 199.652 294.717 201.555C291.033 202.831 276.616 196.528 262.932 192.427C249.248 188.326 228.573 178.389 209.634 154.273C204.576 147.768 200.476 140.57 197.459 132.901C179.596 88.4566 190.815 26.6503 204.349 4.75963e-05Z" fill="#A1BEE5"/>
<path d="M226.677 152.777C234.827 162.461 244.331 170.919 254.895 177.89C268.504 186.107 282.602 193.483 297.112 199.978C296.415 200.634 295.597 201.15 294.704 201.495C291.021 202.771 276.604 196.468 262.92 192.367C249.236 188.266 228.561 178.329 209.622 154.213C204.564 147.708 200.463 140.51 197.447 132.841C179.56 88.4688 190.791 26.6505 204.301 0.0483689C190.835 44.5356 196.503 102.234 217.617 139.745C220.263 144.338 223.294 148.698 226.677 152.777Z" fill="#A1BEE5"/>
<path d="M197.021 47.6153C195.956 72.3852 198.779 97.6958 208.017 121.091C212.491 132.831 218.793 143.789 226.689 153.56C234.683 163.227 244.222 171.505 254.92 178.058C254.944 178.054 254.966 178.042 254.983 178.025C255 178.008 255.012 177.986 255.016 177.962C255.032 177.935 255.038 177.904 255.034 177.873C255.029 177.843 255.015 177.814 254.992 177.793C245.137 170.345 236.259 161.685 228.567 152.019C220.903 142.335 214.574 131.666 209.751 120.296C205.045 108.851 201.706 96.8899 199.805 84.6608C197.861 72.4042 197.002 59.9996 197.238 47.5912C197.238 47.5593 197.225 47.5286 197.202 47.5061C197.18 47.4835 197.149 47.4708 197.117 47.4708C197.085 47.4709 197.055 47.4835 197.032 47.5061C197.01 47.5287 196.997 47.5593 196.997 47.5912L197.021 47.6153Z" fill="#FBFBFB"/>
<path d="M131.141 300.225C131.679 296.554 132.444 292.92 133.43 289.344C137.355 275.319 143.006 261.835 150.253 249.201C152.842 244.567 155.804 239.848 158.934 235.298C160.511 233.022 162.137 230.771 163.822 228.581C171.951 217.638 181.845 208.125 193.099 200.434C198.473 196.889 204.263 194.018 210.337 191.885C211.119 191.608 211.901 191.307 212.696 191.066C214.742 190.44 216.752 189.898 218.738 189.404C241.054 183.501 255.653 185.026 271.6 188.164C283.984 190.605 297.547 197.089 299.484 199.893C299.752 200.266 299.967 200.675 300.121 201.108C301.806 205.007 299.602 210.436 292.005 220.054C276.763 239.363 245.458 242.873 245.458 242.873L245.164 212.675L231.603 249.219L205.29 260.707L204.695 231.725L192.699 269.159C153.266 286.692 132.465 299.406 131.189 300.177L131.141 300.225Z" fill="#A1BEE5"/>
<path d="M300.59 203.479C286.469 200.298 271.993 198.966 257.527 199.517C242.946 199.853 228.507 202.476 214.738 207.29C207.922 209.936 201.425 213.341 195.37 217.44C189.278 221.44 183.507 225.908 178.108 230.804C167.358 240.595 157.968 251.781 150.189 264.065C150.192 264.093 150.204 264.119 150.224 264.139C150.244 264.159 150.27 264.171 150.298 264.173C150.323 264.172 150.346 264.161 150.364 264.144C150.382 264.126 150.393 264.102 150.394 264.077C159.084 252.59 168.909 242.007 179.72 232.489C185.097 227.745 190.753 223.326 196.658 219.258C202.497 215.127 208.779 211.661 215.388 208.927C228.886 203.966 243.075 201.145 257.442 200.564C271.86 199.706 286.327 200.722 300.482 203.588C300.511 203.582 300.539 203.567 300.56 203.546C300.582 203.524 300.596 203.497 300.602 203.467L300.59 203.479Z" fill="#FBFBFB"/>
</g>
<defs>
<clipPath id="clip0_65_648">
<rect width="288.795" height="217.873" fill="white" transform="translate(0.140625 204.209) rotate(-45)"/>
</clipPath>
</defs>
</svg>
