<svg width="269" height="369" viewBox="0 0 269 369" fill="none" xmlns="http://www.w3.org/2000/svg">
<g clip-path="url(#clip0_65_749)">
<path d="M189.189 95.2937L170.769 153.132L174.322 102.599C162.318 106.649 151.349 113.287 142.19 122.045C142.19 122.045 136.553 156.375 126.209 177.284L126.767 133.596C126.767 133.596 117.604 133.988 106.292 141.103C105.453 141.633 104.582 142.213 103.71 142.792C97.9823 146.834 86.8138 153.484 74.0569 162.884C62.8515 170.996 52.4357 180.146 42.9478 190.214C38.2913 195.219 33.9774 200.532 30.0354 206.117L29.2742 207.152L29.4979 207.328C37.3032 213.831 46.381 218.63 56.1493 221.417C65.9177 224.205 76.1609 224.919 86.2224 223.515C96.7486 222.038 107.188 219.994 117.494 217.392C207.336 194.201 232.073 110.115 228.864 51.38C228.864 51.38 213.014 77.9583 189.189 95.2937Z" fill="#A56BAA"/>
<path d="M189.189 95.2937L170.769 153.132L174.322 102.599C162.318 106.649 151.349 113.287 142.19 122.045C142.19 122.045 136.553 156.375 126.209 177.284L126.767 133.596C126.767 133.596 117.604 133.988 106.292 141.103C105.453 141.633 104.582 142.213 103.71 142.792C97.9823 146.834 86.8138 153.484 74.0569 162.884C62.8515 170.996 52.4357 180.146 42.9478 190.214C38.2913 195.219 33.9774 200.532 30.0354 206.117L29.2742 207.152L29.4979 207.328C37.3032 213.831 46.381 218.63 56.1493 221.417C65.9177 224.205 76.1609 224.919 86.2224 223.515C96.7486 222.038 107.188 219.994 117.494 217.392C207.336 194.201 232.073 110.115 228.864 51.38C228.864 51.38 213.014 77.9583 189.189 95.2937Z" fill="#A1BEE5"/>
<path d="M200.179 138.067C197.283 144.264 193.478 149.993 188.889 155.063C184.315 160.107 179.37 164.801 174.095 169.106C163.495 177.699 151.978 185.094 139.756 191.157C115.462 203.608 88.5653 210.123 61.2712 210.169C60.9164 210.193 60.5855 210.356 60.3507 210.623C60.1159 210.891 59.9964 211.24 60.0181 211.595C60.0417 211.916 60.1781 212.219 60.4032 212.45C60.6284 212.68 60.9278 212.823 61.2485 212.854C88.8956 212.403 116.042 205.389 140.451 192.389C152.611 186.076 164.044 178.452 174.548 169.654C179.784 165.236 184.691 160.441 189.23 155.31C193.712 150.135 197.402 144.325 200.179 138.067Z" fill="#FBFBFB"/>
<path d="M186.189 368.394C184.697 367.317 168.737 350.028 121.691 324.159L106.171 269.328L103.423 314.327L66.7849 294.828L53.8199 247.943L50.3159 285.362C50.3159 285.362 13.5363 277.443 -3.33459 252.069C-12.6009 237.968 -14.3728 230.93 -10.4938 226.276C-7.69091 223.039 9.48787 221.117 24.7589 217.502C40.03 213.888 65.158 211.985 96.4221 224.525C104.808 227.936 112.662 232.531 119.745 238.171C161.152 270.642 184.427 335.606 186.189 368.394Z" fill="#A56BAA"/>
<path d="M186.189 368.394C184.697 367.317 168.737 350.028 121.691 324.159L106.171 269.328L103.423 314.327L66.7849 294.828L53.8199 247.943L50.3159 285.362C50.3159 285.362 13.5363 277.443 -3.33459 252.069C-12.6009 237.968 -14.3728 230.93 -10.4938 226.276C-7.69091 223.039 9.48787 221.117 24.7589 217.502C40.03 213.888 65.158 211.985 96.4221 224.525C104.808 227.936 112.662 232.531 119.745 238.171C161.152 270.642 184.427 335.606 186.189 368.394Z" fill="#A1BEE5"/>
<path d="M81.0295 235.31C67.9568 230.574 54.2695 227.747 40.3897 226.918C22.9299 226.575 5.46511 227.302 -11.9066 229.093C-11.6041 228.085 -11.1093 227.146 -10.4495 226.327C-7.64653 223.089 9.53227 221.167 24.8033 217.553C40.0744 213.938 65.2024 212.036 96.4665 224.576C104.853 227.987 112.707 232.582 119.789 238.222C161.179 270.611 184.45 335.592 186.208 368.322C174.584 318.601 137.499 266.822 96.8076 242.732C91.7679 239.816 86.4896 237.333 81.0295 235.31Z" fill="#A1BEE5"/>
<path d="M167.008 319.069C154.415 294.918 137.827 272.389 116.187 255.205C105.482 246.494 93.4681 239.53 80.589 234.572C67.6734 229.765 54.0515 227.13 40.2748 226.771C40.2544 226.788 40.2397 226.811 40.2328 226.837C40.2259 226.863 40.227 226.89 40.2361 226.916C40.2358 226.95 40.247 226.983 40.268 227.009C40.289 227.036 40.3184 227.055 40.3515 227.063C53.8188 228.736 67.0217 232.098 79.6489 237.07C92.2594 242.072 104.141 248.747 114.975 256.914C125.739 265.218 135.485 274.764 144.011 285.354C152.592 295.947 160.223 307.276 166.815 319.211C166.832 319.241 166.861 319.263 166.895 319.272C166.929 319.281 166.965 319.277 166.995 319.259C167.026 319.242 167.048 319.213 167.057 319.179C167.066 319.145 167.061 319.109 167.044 319.078L167.008 319.069Z" fill="#FBFBFB"/>
<path d="M90.9311 42.5551C92.4351 46.3428 93.7037 50.2199 94.7298 54.1643C98.6998 69.6631 100.73 85.5956 100.774 101.596C100.857 107.427 100.631 113.543 100.152 119.591C99.9015 122.622 99.5917 125.657 99.1915 128.667C97.469 143.542 93.2804 158.027 86.7978 171.526C83.6326 177.851 79.7021 183.762 75.0947 189.127C74.5026 189.821 73.9236 190.537 73.3001 191.202C71.6974 192.922 70.0828 194.542 68.4646 196.103C50.4762 213.976 35.7492 220.544 18.8544 226.318C5.7318 230.798 -10.7332 232.079 -14.1163 230.476C-14.5767 230.268 -15.0057 229.997 -15.3905 229.669C-19.1345 226.885 -20.0197 220.51 -18.0755 207.186C-14.1808 180.445 13.6751 159.91 13.6751 159.91L30.5418 188.478L23.3704 146.263L42.0936 120.88L58.5791 148.126L49.4302 105.923C77.3156 67.5829 90.1211 44.0613 90.9117 42.6273L90.9311 42.5551Z" fill="#A1BEE5"/>
<path d="M-17.1388 227.671C-1.95692 222.941 12.5464 216.257 26.0067 207.787C39.6942 199.459 51.9902 189.033 62.4457 176.889C67.4774 170.628 71.7881 163.82 75.2963 156.594C78.895 149.443 81.9317 142.022 84.379 134.399C89.2281 119.179 92.0167 103.379 92.6704 87.4197C92.6527 87.3945 92.6268 87.3763 92.597 87.3684C92.5673 87.3604 92.5357 87.3632 92.5078 87.3762C92.4848 87.3913 92.468 87.4144 92.4609 87.4411C92.4537 87.4677 92.4567 87.4961 92.4691 87.5207C90.5116 103.223 86.9773 118.688 81.9196 133.682C79.4099 141.148 76.4559 148.459 73.0734 155.573C69.7873 162.71 65.7138 169.457 60.9287 175.689C50.8115 187.823 38.8618 198.301 25.5119 206.745C12.2668 215.481 -2.05518 222.46 -17.0953 227.509C-17.1203 227.531 -17.1383 227.56 -17.1469 227.592C-17.1555 227.624 -17.1544 227.658 -17.1437 227.689L-17.1388 227.671Z" fill="#FBFBFB"/>
</g>
<defs>
<clipPath id="clip0_65_749">
<rect width="317.257" height="239.345" fill="white" transform="translate(268.302 61.9473) rotate(105)"/>
</clipPath>
</defs>
</svg>
