<svg width="155" height="136" viewBox="0 0 155 136" fill="none" xmlns="http://www.w3.org/2000/svg">
<g clip-path="url(#clip0_28_655)">
<path d="M31.3975 40.5695L67.5319 42.2589L37.8954 48.0322C42.0783 54.3447 47.5917 59.6576 54.0456 63.5953C54.0456 63.5953 74.6763 61.5367 88.3075 64.2778L63.0736 70.7224C63.0736 70.7224 64.712 75.9586 70.5524 81.3962C70.987 81.799 71.4552 82.2129 71.9233 82.6269C75.1333 85.3121 80.6838 90.7386 88.0623 96.6572C94.4599 101.879 101.334 106.482 108.593 110.408C112.192 112.325 115.915 113.995 119.738 115.409L120.452 115.689L120.519 115.532C123.058 110.013 124.42 104.022 124.518 97.9427C124.616 91.8638 123.447 85.8316 121.087 80.2326C118.613 74.3763 115.826 68.6581 112.739 63.1031C85.5322 14.7577 33.3145 13.4822 0 24.4357C0 24.4357 17.744 29.4817 31.3975 40.5695Z" fill="#A56BAA"/>
<path d="M31.3975 40.5695L67.5319 42.2589L37.8954 48.0322C42.0783 54.3447 47.5917 59.6576 54.0456 63.5953C54.0456 63.5953 74.6763 61.5367 88.3075 64.2778L63.0736 70.7224C63.0736 70.7224 64.712 75.9586 70.5524 81.3962C70.987 81.799 71.4552 82.2129 71.9233 82.6269C75.1333 85.3121 80.6838 90.7386 88.0623 96.6572C94.4599 101.879 101.334 106.482 108.593 110.408C112.192 112.325 115.915 113.995 119.738 115.409L120.452 115.689L120.519 115.532C123.058 110.013 124.42 104.022 124.518 97.9427C124.616 91.8638 123.447 85.8316 121.087 80.2326C118.613 74.3763 115.826 68.6581 112.739 63.1031C85.5322 14.7577 33.3145 13.4822 0 24.4357C0 24.4357 17.744 29.4817 31.3975 40.5695Z" fill="#A1BEE5"/>
<path d="M54.3242 27.5906C58.3376 28.3045 62.2222 29.6169 65.8489 31.4842C69.4577 33.3475 72.9225 35.4793 76.2144 37.8616C82.7953 42.6587 88.8283 48.1707 94.2036 54.2974C105.118 66.4131 113.017 80.9525 117.253 96.7241C117.321 96.9255 117.467 97.0915 117.657 97.1858C117.847 97.2801 118.066 97.2952 118.267 97.2276C118.449 97.1642 118.602 97.0384 118.7 96.8726C118.798 96.7067 118.834 96.5114 118.802 96.3213C114.278 80.4084 106.054 65.8019 94.8054 53.7044C89.2961 47.6529 83.1443 42.2241 76.4596 37.5147C73.1087 35.1724 69.5922 33.0783 65.9381 31.2492C62.2684 29.4597 58.3545 28.2267 54.3242 27.5906Z" fill="#FBFBFB"/>
<path d="M189.064 0.000244141C188.674 1.02958 181.184 12.9341 173.55 44.1387L144.381 61.6039L170.707 56.2223L165.135 80.4229L140.146 95.1805L162.226 91.41C162.226 91.41 163.34 113.899 151.336 127.582C144.649 135.123 140.87 137.238 137.593 135.716C135.297 134.597 131.541 124.964 127.105 116.696C122.669 108.428 117.698 94.1959 120.095 74.1798C120.765 68.8034 122.198 63.5512 124.352 58.583C136.657 29.6161 170.462 6.09796 189.064 0.000244141Z" fill="#A56BAA"/>
<path d="M189.064 0.000244141C188.674 1.02958 181.184 12.9341 173.55 44.1387L144.381 61.6039L170.707 56.2223L165.135 80.4229L140.146 95.1805L162.226 91.41C162.226 91.41 163.34 113.899 151.336 127.582C144.649 135.123 140.87 137.238 137.593 135.716C135.297 134.597 131.541 124.964 127.105 116.696C122.669 108.428 117.698 94.1959 120.095 74.1798C120.765 68.8034 122.198 63.5512 124.352 58.583C136.657 29.6161 170.462 6.09796 189.064 0.000244141Z" fill="#A1BEE5"/>
<path d="M128.678 81.4073C127.968 89.6982 128.452 98.0486 130.116 106.201C132.611 116.348 135.723 126.331 139.434 136.096C138.807 136.078 138.19 135.937 137.617 135.682C135.321 134.564 131.565 124.93 127.129 116.662C122.693 108.394 117.722 94.1621 120.118 74.146C120.788 68.7696 122.222 63.5173 124.376 58.5492C136.636 29.6047 170.452 6.08652 189.021 0C162.193 14.4219 138.107 43.8812 130.517 71.1363C129.615 74.5015 129 77.9375 128.678 81.4073Z" fill="#A1BEE5"/>
<path d="M163.63 18.7301C151.67 29.7508 141.26 42.8301 134.707 58.0016C131.343 65.5395 129.188 73.5637 128.32 81.7771C127.545 89.9881 128.129 98.2713 130.048 106.291C130.061 106.3 130.076 106.305 130.092 106.305C130.108 106.305 130.124 106.3 130.137 106.291C130.157 106.286 130.174 106.274 130.186 106.258C130.198 106.242 130.204 106.222 130.204 106.202C129.09 98.157 128.989 90.0036 129.903 81.9338C130.838 73.8687 132.847 65.9661 135.877 58.438C138.997 50.9292 142.989 43.8164 147.769 37.247C152.544 30.6453 157.888 24.479 163.741 18.8196C163.756 18.8048 163.764 18.7847 163.764 18.7637C163.764 18.7427 163.756 18.7226 163.741 18.7077C163.726 18.6929 163.706 18.6846 163.686 18.6846C163.665 18.6846 163.645 18.6929 163.63 18.7077V18.7301Z" fill="#FBFBFB"/>
<path d="M16.1953 105.542C18.1437 104.086 20.1798 102.752 22.292 101.547C30.6013 96.8516 39.4593 93.2098 48.6628 90.7058C52.0065 89.7548 55.562 88.938 59.1175 88.2779C60.9008 87.9534 62.6952 87.6625 64.4897 87.4276C73.3181 86.1192 82.302 86.2969 91.0722 87.9534C95.2011 88.8035 99.2102 90.1601 103.009 91.9925C103.5 92.2274 104.001 92.4512 104.481 92.7085C105.718 93.3687 106.899 94.0511 108.047 94.7448C121.11 102.375 127.162 109.872 133.092 118.744C137.695 125.636 140.972 134.956 140.57 137.16C140.522 137.459 140.432 137.749 140.303 138.022C139.277 140.618 135.744 142.117 127.775 143.057C111.781 144.947 95.6643 132.025 95.6643 132.025L109.507 117.849L86.313 128.534L68.8142 121.642L81.955 107.891L59.0729 119.717C32.7021 109.536 17.1873 105.777 16.2399 105.542H16.1953Z" fill="#A1BEE5"/>
<path d="M139.423 139.342C134.358 131.298 128.274 123.949 121.322 117.48C114.417 110.857 106.519 105.364 97.9159 101.2C93.5358 99.2616 88.952 97.8241 84.2512 96.9153C79.5795 95.9427 74.8394 95.3367 70.0739 95.1028C60.5653 94.657 51.0401 95.4924 41.7526 97.5866C41.7408 97.6007 41.7344 97.6186 41.7344 97.637C41.7344 97.6554 41.7408 97.6732 41.7526 97.6873C41.7649 97.6983 41.7808 97.7044 41.7972 97.7044C41.8137 97.7044 41.8295 97.6983 41.8418 97.6873C51.1823 96.3867 60.6296 96.0343 70.0405 96.6356C74.7257 96.9298 79.3893 97.5052 84.006 98.3586C88.6213 99.1527 93.1337 100.462 97.4589 102.263C106.004 106.233 113.878 111.518 120.798 117.927C127.87 124.231 134.096 131.429 139.322 139.342C139.339 139.353 139.358 139.359 139.378 139.359C139.398 139.359 139.417 139.353 139.434 139.342H139.423Z" fill="#FBFBFB"/>
</g>
<defs>
<clipPath id="clip0_28_655">
<rect width="155" height="136" fill="white"/>
</clipPath>
</defs>
</svg>
