<svg width="256" height="479" viewBox="0 0 256 479" fill="none" xmlns="http://www.w3.org/2000/svg">
<g clip-path="url(#clip0_69_544)">
<path d="M153.117 123.748L129.197 198.856L133.811 133.234C118.222 138.493 103.978 147.114 92.0849 158.487C92.0849 158.487 84.7641 203.067 71.3312 230.219L72.056 173.487C72.056 173.487 60.1577 173.995 45.4675 183.234C44.3781 183.923 43.2465 184.676 42.1149 185.429C34.6767 190.677 20.1733 199.313 3.60728 211.52C-10.9439 222.053 -24.4698 233.936 -36.7908 247.011C-42.8377 253.51 -48.4397 260.409 -53.5587 267.662L-54.5472 269.006L-54.2566 269.235C-44.1208 277.679 -32.3324 283.911 -19.6473 287.531C-6.96226 291.151 6.33956 292.078 19.4053 290.255C33.0745 288.336 46.6305 285.682 60.0144 282.303C176.683 252.187 208.806 142.994 204.638 66.7215C204.638 66.7215 184.055 101.236 153.117 123.748Z" fill="#A56BAA"/>
<path d="M153.117 123.748L129.197 198.856L133.811 133.234C118.222 138.493 103.978 147.114 92.0849 158.487C92.0849 158.487 84.7641 203.067 71.3312 230.219L72.056 173.487C72.056 173.487 60.1577 173.995 45.4675 183.234C44.3781 183.923 43.2465 184.676 42.1149 185.429C34.6767 190.677 20.1733 199.313 3.60728 211.52C-10.9439 222.053 -24.4698 233.936 -36.7908 247.011C-42.8377 253.51 -48.4397 260.409 -53.5587 267.662L-54.5472 269.006L-54.2566 269.235C-44.1208 277.679 -32.3324 283.911 -19.6473 287.531C-6.96226 291.151 6.33956 292.078 19.4053 290.255C33.0745 288.336 46.6305 285.682 60.0144 282.303C176.683 252.187 208.806 142.994 204.638 66.7215C204.638 66.7215 184.055 101.236 153.117 123.748Z" fill="#A1BEE5"/>
<path d="M167.388 179.293C163.628 187.34 158.687 194.779 152.728 201.364C146.787 207.913 140.365 214.009 133.515 219.6C119.75 230.758 104.795 240.361 88.9228 248.234C57.3747 264.403 22.4475 272.864 -12.9964 272.923C-13.4572 272.954 -13.8869 273.167 -14.1918 273.514C-14.4967 273.861 -14.652 274.314 -14.6237 274.775C-14.5931 275.193 -14.416 275.586 -14.1236 275.885C-13.8312 276.184 -13.4424 276.37 -13.026 276.41C22.8763 275.825 58.1279 266.716 89.8262 249.834C105.616 241.636 120.464 231.736 134.104 220.311C140.903 214.573 147.275 208.348 153.17 201.684C158.99 194.964 163.781 187.419 167.388 179.293Z" fill="#FBFBFB"/>
<path d="M149.222 478.394C147.284 476.994 126.559 454.544 65.4645 420.95L45.3107 349.748L41.7422 408.182L-5.83556 382.862L-22.6718 321.977L-27.2221 370.568C-27.2221 370.568 -74.9838 360.285 -96.8921 327.335C-108.925 309.024 -111.226 299.883 -106.189 293.841C-102.549 289.636 -80.241 287.14 -60.4101 282.446C-40.5793 277.753 -7.94822 275.282 32.651 291.566C43.5412 295.996 53.7405 301.963 62.9381 309.287C116.708 351.454 146.933 435.815 149.222 478.394Z" fill="#A56BAA"/>
<path d="M149.222 478.394C147.284 476.994 126.559 454.544 65.4645 420.95L45.3107 349.748L41.7422 408.182L-5.83556 382.862L-22.6718 321.977L-27.2221 370.568C-27.2221 370.568 -74.9838 360.285 -96.8921 327.335C-108.925 309.024 -111.226 299.883 -106.189 293.841C-102.549 289.636 -80.241 287.14 -60.4101 282.446C-40.5793 277.753 -7.94822 275.282 32.651 291.566C43.5412 295.996 53.7405 301.963 62.9381 309.287C116.708 351.454 146.933 435.815 149.222 478.394Z" fill="#A1BEE5"/>
<path d="M12.6624 305.571C-4.3137 299.421 -22.088 295.751 -40.1121 294.674C-62.7854 294.229 -85.465 295.172 -108.024 297.498C-107.631 296.19 -106.988 294.97 -106.131 293.906C-102.492 289.702 -80.1834 287.206 -60.3525 282.512C-40.5217 277.818 -7.89058 275.348 32.7087 291.632C43.5988 296.061 53.7981 302.029 62.9957 309.353C116.744 351.413 146.963 435.798 149.247 478.3C134.151 413.733 85.9933 346.492 33.1516 315.21C26.6072 311.423 19.7528 308.198 12.6624 305.571Z" fill="#A1BEE5"/>
<path d="M124.312 414.34C107.959 382.979 86.4183 353.722 58.3173 331.408C44.4159 320.095 28.8141 311.052 12.0894 304.613C-4.68268 298.372 -22.3721 294.949 -40.2623 294.483C-40.2888 294.505 -40.3079 294.535 -40.3169 294.569C-40.3259 294.603 -40.3244 294.638 -40.3126 294.671C-40.313 294.715 -40.2984 294.758 -40.2712 294.793C-40.2439 294.827 -40.2057 294.852 -40.1627 294.862C-22.6742 297.034 -5.52905 301.4 10.8685 307.857C27.2445 314.353 42.6738 323.02 56.7427 333.626C70.7203 344.409 83.3764 356.806 94.4484 370.558C105.592 384.314 115.501 399.026 124.061 414.524C124.084 414.564 124.122 414.593 124.166 414.604C124.21 414.616 124.257 414.61 124.296 414.587C124.335 414.564 124.364 414.527 124.376 414.483C124.388 414.439 124.382 414.392 124.359 414.353L124.312 414.34Z" fill="#FBFBFB"/>
<path d="M25.5195 55.2616C27.4725 60.1804 29.12 65.2152 30.4524 70.3373C35.6078 90.4639 38.2445 111.154 38.302 131.932C38.4093 139.504 38.1159 147.446 37.4941 155.301C37.1684 159.236 36.766 163.177 36.2464 167.086C34.0095 186.403 28.5702 205.213 20.1521 222.742C16.0417 230.955 10.9376 238.632 4.95452 245.599C4.1855 246.5 3.43364 247.43 2.62401 248.294C0.542751 250.527 -1.55398 252.631 -3.6553 254.658C-27.015 277.867 -46.1393 286.396 -68.0787 293.894C-85.1196 299.713 -106.501 301.376 -110.894 299.294C-111.492 299.024 -112.049 298.672 -112.549 298.247C-117.411 294.631 -118.56 286.352 -116.036 269.051C-110.978 234.324 -74.8045 207.658 -74.8045 207.658L-52.9015 244.756L-62.2143 189.936L-37.9005 156.974L-16.4926 192.355L-28.3732 137.551C7.83844 87.7625 24.4676 57.2176 25.4943 55.3555L25.5195 55.2616Z" fill="#A1BEE5"/>
<path d="M-114.819 295.652C-95.1041 289.51 -76.2701 280.83 -58.7907 269.831C-41.0163 259.016 -25.0487 245.476 -11.4713 229.707C-4.93727 221.577 0.660605 212.736 5.21642 203.352C9.88961 194.065 13.8331 184.428 17.0111 174.529C23.3081 154.765 26.9294 134.247 27.7782 113.522C27.7553 113.49 27.7215 113.466 27.6829 113.456C27.6443 113.445 27.6033 113.449 27.5671 113.466C27.5371 113.486 27.5154 113.516 27.5062 113.55C27.4969 113.585 27.5007 113.622 27.5168 113.654C24.9749 134.044 20.3852 154.127 13.8174 173.598C10.5583 183.294 6.72222 192.787 2.32975 202.025C-1.93752 211.294 -7.22741 220.056 -13.4413 228.148C-26.5794 243.905 -42.0972 257.512 -59.4333 268.477C-76.6332 279.821 -95.2317 288.885 -114.763 295.441C-114.795 295.47 -114.818 295.507 -114.83 295.549C-114.841 295.591 -114.839 295.635 -114.825 295.676L-114.819 295.652Z" fill="#FBFBFB"/>
</g>
<defs>
<clipPath id="clip0_69_544">
<rect width="411.988" height="310.812" fill="white" transform="translate(255.852 80.4441) rotate(105)"/>
</clipPath>
</defs>
</svg>
