<svg width="337" height="468" viewBox="0 0 337 468" fill="none" xmlns="http://www.w3.org/2000/svg">
<g clip-path="url(#clip0_1_1178)">
<path d="M101.167 279.098L154.456 230.551L120.794 280.413C135.546 283.376 150.77 283.061 165.389 279.492C165.389 279.492 191.572 247.532 214.627 232.17L188.111 276.77C188.111 276.77 197.767 281.809 213.626 281.208C214.804 281.161 216.044 281.082 217.285 281.004C225.576 280.248 241.011 280.04 259.713 277.948C276.054 276.259 292.2 273.032 307.937 268.311C315.698 265.929 323.29 263.026 330.66 259.623L332.058 259.01L331.932 258.696C327.766 247.374 321.279 237.048 312.888 228.38C304.496 219.713 294.386 212.896 283.204 208.366C271.5 203.635 259.55 199.538 247.405 196.094C141.233 166.598 65.8617 238.39 34.286 300.704C34.286 300.704 66.3698 282.78 101.167 279.098Z" fill="#A56BAA"/>
<path d="M101.167 279.098L154.456 230.551L120.794 280.413C135.546 283.376 150.77 283.061 165.389 279.492C165.389 279.492 191.572 247.532 214.627 232.17L188.111 276.77C188.111 276.77 197.767 281.809 213.626 281.208C214.804 281.161 216.044 281.082 217.285 281.004C225.576 280.248 241.011 280.04 259.713 277.948C276.054 276.259 292.2 273.032 307.937 268.311C315.698 265.929 323.29 263.026 330.66 259.623L332.058 259.01L331.932 258.696C327.766 247.374 321.279 237.048 312.888 228.38C304.496 219.713 294.386 212.896 283.204 208.366C271.5 203.635 259.55 199.538 247.405 196.094C141.233 166.598 65.8617 238.39 34.286 300.704C34.286 300.704 66.3698 282.78 101.167 279.098Z" fill="#A1BEE5"/>
<path d="M115.263 228.581C121.92 223.927 129.236 220.295 136.966 217.804C144.666 215.333 152.539 213.442 160.521 212.146C176.525 209.604 192.76 208.836 208.932 209.858C241.311 211.478 272.842 220.748 300.941 236.908C301.32 237.094 301.757 237.123 302.158 236.987C302.558 236.852 302.888 236.564 303.076 236.185C303.243 235.841 303.283 235.449 303.188 235.078C303.093 234.707 302.87 234.382 302.559 234.16C273.856 218.207 241.772 209.302 208.948 208.178C192.693 207.451 176.407 208.502 160.38 211.314C152.371 212.749 144.478 214.766 136.762 217.349C129.08 220.009 121.835 223.794 115.263 228.581Z" fill="#FBFBFB"/>
<path d="M266.418 0.000193107C267.313 1.99419 273.462 29.252 306.487 83.7942L289.891 149.402L319.437 104.754L345.54 146.563L331.034 202.482L356.857 166.079C356.857 166.079 389.982 196.062 392.267 232.177C393.424 252.182 391.067 260.473 384.314 262.955C379.509 264.621 360.7 256.397 342.847 251.047C324.995 245.696 298.021 232.732 273.313 201.271C266.713 192.783 261.364 183.393 257.429 173.387C234.124 115.404 248.761 34.769 266.418 0.000193107Z" fill="#A56BAA"/>
<path d="M266.418 0.000193107C267.313 1.99419 273.462 29.252 306.487 83.7942L289.891 149.402L319.437 104.754L345.54 146.563L331.034 202.482L356.857 166.079C356.857 166.079 389.982 196.062 392.267 232.177C393.424 252.182 391.067 260.473 384.314 262.955C379.509 264.621 360.7 256.397 342.847 251.047C324.995 245.696 298.021 232.732 273.313 201.271C266.713 192.783 261.364 183.393 257.429 173.387C234.124 115.404 248.761 34.769 266.418 0.000193107Z" fill="#A1BEE5"/>
<path d="M295.548 199.318C306.18 211.952 318.579 222.986 332.362 232.081C350.116 242.801 368.509 252.425 387.439 260.898C386.53 261.754 385.463 262.426 384.298 262.877C379.493 264.542 360.684 256.319 342.831 250.968C324.979 245.618 298.006 232.654 273.297 201.192C266.698 192.704 261.348 183.314 257.413 173.308C234.077 115.419 248.729 34.769 266.355 0.0629569C248.787 58.1026 256.181 133.378 283.728 182.315C287.179 188.308 291.133 193.996 295.548 199.318Z" fill="#A1BEE5"/>
<path d="M256.857 62.1204C255.468 94.436 259.151 127.457 271.203 157.98C277.04 173.296 285.262 187.592 295.563 200.339C305.993 212.952 318.438 223.751 332.394 232.3C332.425 232.295 332.454 232.28 332.476 232.257C332.499 232.235 332.514 232.206 332.519 232.175C332.54 232.14 332.548 232.099 332.542 232.059C332.537 232.019 332.517 231.983 332.488 231.955C319.631 222.238 308.048 210.94 298.013 198.328C288.014 185.695 279.757 171.776 273.464 156.943C267.325 142.011 262.97 126.406 260.489 110.451C257.953 94.4609 256.833 78.2775 257.14 62.089C257.14 62.0473 257.123 62.0074 257.094 61.9779C257.064 61.9485 257.024 61.932 256.983 61.932C256.941 61.932 256.901 61.9485 256.872 61.978C256.842 62.0074 256.826 62.0474 256.826 62.089L256.857 62.1204Z" fill="#FBFBFB"/>
<path d="M170.907 391.684C171.609 386.895 172.607 382.154 173.893 377.488C179.013 359.191 186.386 341.599 195.841 325.116C199.219 319.07 203.083 312.914 207.167 306.977C209.224 304.009 211.345 301.072 213.544 298.214C224.148 283.938 237.057 271.528 251.74 261.494C258.751 256.868 266.304 253.122 274.228 250.34C275.249 249.978 276.27 249.586 277.306 249.271C279.976 248.454 282.598 247.747 285.189 247.103C314.303 239.402 333.349 241.392 354.154 245.486C370.311 248.669 388.005 257.129 390.533 260.787C390.883 261.274 391.163 261.808 391.365 262.373C393.562 267.46 390.687 274.542 380.776 287.091C360.891 312.282 320.048 316.86 320.048 316.86L319.665 277.463L301.973 325.139L267.644 340.127L266.868 302.316L251.217 351.154C199.772 374.028 172.634 390.616 170.97 391.621L170.907 391.684Z" fill="#A1BEE5"/>
<path d="M391.977 265.466C373.554 261.316 354.668 259.578 335.795 260.297C316.772 260.735 297.935 264.157 279.971 270.437C271.078 273.889 262.602 278.331 254.703 283.68C246.755 288.899 239.226 294.728 232.182 301.115C218.158 313.888 205.908 328.483 195.759 344.508C195.762 344.545 195.778 344.579 195.804 344.605C195.829 344.631 195.864 344.647 195.9 344.65C195.933 344.648 195.964 344.634 195.987 344.611C196.01 344.588 196.024 344.557 196.026 344.524C207.363 329.537 220.181 315.73 234.286 303.313C241.301 297.123 248.68 291.359 256.383 286.051C264 280.662 272.197 276.141 280.819 272.573C298.429 266.101 316.941 262.42 335.685 261.663C354.494 260.543 373.369 261.869 391.835 265.607C391.874 265.6 391.91 265.581 391.938 265.553C391.966 265.525 391.985 265.489 391.992 265.45L391.977 265.466Z" fill="#FBFBFB"/>
</g>
<defs>
<clipPath id="clip0_1_1178">
<rect width="376.772" height="284.244" fill="white" transform="translate(0 266.418) rotate(-45)"/>
</clipPath>
</defs>
</svg>
