<svg width="329" height="479" viewBox="0 0 329 479" fill="none" xmlns="http://www.w3.org/2000/svg">
<g clip-path="url(#clip0_1_1113)">
<path d="M226.117 123.748L202.197 198.856L206.811 133.234C191.222 138.493 176.978 147.114 165.085 158.487C165.085 158.487 157.764 203.067 144.331 230.219L145.056 173.487C145.056 173.487 133.158 173.995 118.467 183.234C117.378 183.923 116.247 184.676 115.115 185.429C107.677 190.677 93.1733 199.313 76.6073 211.52C62.0561 222.053 48.5302 233.936 36.2092 247.011C30.1623 253.51 24.5603 260.409 19.4413 267.662L18.4528 269.006L18.7434 269.235C28.8792 277.679 40.6676 283.911 53.3527 287.531C66.0377 291.151 79.3396 292.078 92.4053 290.255C106.075 288.336 119.631 285.682 133.014 282.303C249.683 252.187 281.806 142.994 277.638 66.7215C277.638 66.7215 257.055 101.236 226.117 123.748Z" fill="#A56BAA"/>
<path d="M226.117 123.748L202.197 198.856L206.811 133.234C191.222 138.493 176.978 147.114 165.085 158.487C165.085 158.487 157.764 203.067 144.331 230.219L145.056 173.487C145.056 173.487 133.158 173.995 118.467 183.234C117.378 183.923 116.247 184.676 115.115 185.429C107.677 190.677 93.1733 199.313 76.6073 211.52C62.0561 222.053 48.5302 233.936 36.2092 247.011C30.1623 253.51 24.5603 260.409 19.4413 267.662L18.4528 269.006L18.7434 269.235C28.8792 277.679 40.6676 283.911 53.3527 287.531C66.0377 291.151 79.3396 292.078 92.4053 290.255C106.075 288.336 119.631 285.682 133.014 282.303C249.683 252.187 281.806 142.994 277.638 66.7215C277.638 66.7215 257.055 101.236 226.117 123.748Z" fill="#A1BEE5"/>
<path d="M240.387 179.293C236.628 187.34 231.686 194.779 225.727 201.364C219.787 207.913 213.365 214.009 206.515 219.6C192.75 230.758 177.795 240.361 161.923 248.234C130.374 264.403 95.4472 272.864 60.0033 272.923C59.5426 272.954 59.1129 273.167 58.808 273.514C58.5031 273.861 58.3478 274.314 58.3761 274.775C58.4066 275.193 58.5838 275.586 58.8761 275.885C59.1685 276.184 59.5574 276.37 59.9738 276.41C95.8761 275.825 131.128 266.716 162.826 249.834C178.616 241.636 193.464 231.736 207.104 220.311C213.903 214.573 220.275 208.348 226.169 201.684C231.99 194.964 236.781 187.419 240.387 179.293Z" fill="#FBFBFB"/>
<path d="M222.221 478.394C220.284 476.994 199.558 454.544 138.464 420.95L118.31 349.748L114.742 408.182L67.1642 382.862L50.3279 321.977L45.7777 370.568C45.7777 370.568 -1.984 360.285 -23.8924 327.335C-35.9256 309.024 -38.2265 299.883 -33.1893 293.841C-29.5495 289.636 -7.24124 287.14 12.5896 282.446C32.4205 277.753 65.0515 275.282 105.651 291.566C116.541 295.996 126.74 301.963 135.938 309.287C189.708 351.454 219.933 435.815 222.221 478.394Z" fill="#A56BAA"/>
<path d="M222.221 478.394C220.284 476.994 199.558 454.544 138.464 420.95L118.31 349.748L114.742 408.182L67.1642 382.862L50.3279 321.977L45.7777 370.568C45.7777 370.568 -1.984 360.285 -23.8924 327.335C-35.9256 309.024 -38.2265 299.883 -33.1893 293.841C-29.5495 289.636 -7.24124 287.14 12.5896 282.446C32.4205 277.753 65.0515 275.282 105.651 291.566C116.541 295.996 126.74 301.963 135.938 309.287C189.708 351.454 219.933 435.815 222.221 478.394Z" fill="#A1BEE5"/>
<path d="M85.6621 305.571C68.6861 299.421 50.9118 295.751 32.8877 294.674C10.2144 294.229 -12.4652 295.172 -35.024 297.498C-34.6312 296.19 -33.9886 294.97 -33.1317 293.906C-29.4919 289.702 -7.18363 287.206 12.6472 282.512C32.4781 277.818 65.1092 275.348 105.708 291.632C116.599 296.061 126.798 302.029 135.995 309.353C189.744 351.413 219.963 435.798 222.246 478.3C207.151 413.733 158.993 346.492 106.151 315.21C99.6069 311.423 92.7525 308.198 85.6621 305.571Z" fill="#A1BEE5"/>
<path d="M197.312 414.34C180.959 382.979 159.418 353.722 131.317 331.408C117.416 320.095 101.814 311.052 85.0894 304.613C68.3173 298.372 50.6279 294.949 32.7377 294.483C32.7112 294.505 32.6921 294.535 32.6831 294.569C32.6741 294.603 32.6756 294.638 32.6874 294.671C32.687 294.715 32.7016 294.758 32.7288 294.793C32.7561 294.827 32.7943 294.852 32.8373 294.862C50.3258 297.034 67.471 301.4 83.8685 307.857C100.244 314.353 115.674 323.02 129.743 333.626C143.72 344.409 156.376 356.806 167.448 370.558C178.592 384.314 188.501 399.026 197.061 414.524C197.084 414.564 197.122 414.593 197.166 414.604C197.21 414.616 197.257 414.61 197.296 414.587C197.335 414.564 197.364 414.527 197.376 414.483C197.388 414.439 197.382 414.392 197.359 414.353L197.312 414.34Z" fill="#FBFBFB"/>
<path d="M98.5209 55.2616C100.474 60.1804 102.121 65.2152 103.454 70.3373C108.609 90.4639 111.246 111.154 111.303 131.932C111.411 139.504 111.117 147.446 110.496 155.301C110.17 159.236 109.767 163.177 109.248 167.086C107.011 186.403 101.572 205.213 93.1535 222.742C89.0432 230.955 83.9391 238.632 77.956 245.599C77.187 246.5 76.4351 247.43 75.6255 248.294C73.5442 250.527 71.4475 252.631 69.3462 254.658C45.9865 277.867 26.8622 286.396 4.92272 293.894C-12.1182 299.713 -33.4995 301.376 -37.8927 299.294C-38.4907 299.024 -39.0477 298.672 -39.5475 298.247C-44.4094 294.631 -45.5589 286.352 -43.0341 269.051C-37.9766 234.324 -1.80303 207.658 -1.80303 207.658L20.0999 244.756L10.7871 189.936L35.101 156.974L56.5089 192.355L44.6283 137.551C80.8399 87.7625 97.469 57.2176 98.4958 55.3555L98.5209 55.2616Z" fill="#A1BEE5"/>
<path d="M-41.818 295.652C-22.1028 289.51 -3.26889 280.83 14.2105 269.831C31.9849 259.016 47.9525 245.476 61.5299 229.707C68.064 221.577 73.6618 212.736 78.2176 203.352C82.8908 194.065 86.8343 184.428 90.0123 174.529C96.3093 154.765 99.9306 134.247 100.779 113.522C100.756 113.49 100.723 113.466 100.684 113.456C100.646 113.445 100.605 113.449 100.568 113.466C100.538 113.486 100.517 113.516 100.507 113.55C100.498 113.585 100.502 113.622 100.518 113.654C97.9761 134.044 93.3864 154.127 86.8186 173.598C83.5595 183.294 79.7234 192.787 75.331 202.025C71.0637 211.294 65.7738 220.056 59.5599 228.148C46.4218 243.905 30.904 257.512 13.5679 268.477C-3.63201 279.821 -22.2304 288.885 -41.7614 295.441C-41.7939 295.47 -41.8172 295.507 -41.8284 295.549C-41.8396 295.591 -41.8381 295.635 -41.8242 295.676L-41.818 295.652Z" fill="#FBFBFB"/>
</g>
<defs>
<clipPath id="clip0_1_1113">
<rect width="411.988" height="310.812" fill="white" transform="translate(328.852 80.4441) rotate(105)"/>
</clipPath>
</defs>
</svg>
