<svg width="294" height="347" viewBox="0 0 294 347" fill="none" xmlns="http://www.w3.org/2000/svg">
<g clip-path="url(#clip0_8_106)">
<path d="M75.7082 164.052L134.199 143.84L90.7409 171.746C101.369 179.085 113.481 184.001 126.221 186.145C126.221 186.145 157.71 169.821 181.101 165.526L145.063 191.705C145.063 191.705 150.969 198.954 163.679 203.859C164.624 204.221 165.629 204.58 166.634 204.939C173.429 207.155 185.672 212.226 201.13 216.919C214.59 221.13 228.417 224.062 242.429 225.676C249.357 226.43 256.328 226.716 263.295 226.532L264.605 226.523L264.613 226.232C265.168 215.89 263.554 205.547 259.877 195.865C256.199 186.184 250.538 177.379 243.256 170.013C235.631 162.313 227.596 155.029 219.187 148.194C145.462 88.9219 61.6732 119.974 15.6369 158.406C15.6369 158.406 47.0179 155.153 75.7082 164.052Z" fill="#A56BAA"/>
<path d="M75.7082 164.052L134.199 143.84L90.7409 171.746C101.369 179.085 113.481 184.001 126.221 186.145C126.221 186.145 157.71 169.821 181.101 165.526L145.063 191.705C145.063 191.705 150.969 198.954 163.679 203.859C164.624 204.221 165.629 204.58 166.634 204.939C173.429 207.155 185.672 212.226 201.13 216.919C214.59 221.13 228.417 224.062 242.429 225.676C249.357 226.43 256.328 226.716 263.295 226.532L264.605 226.523L264.613 226.232C265.168 215.89 263.554 205.547 259.877 195.865C256.199 186.184 250.538 177.379 243.256 170.013C235.631 162.313 227.596 155.029 219.187 148.194C145.462 88.9219 61.6732 119.974 15.6369 158.406C15.6369 158.406 47.0179 155.153 75.7082 164.052Z" fill="#A1BEE5"/>
<path d="M103.959 128.994C110.787 127.582 117.788 127.199 124.729 127.857C131.64 128.52 138.49 129.699 145.224 131.384C158.708 134.807 171.771 139.708 184.177 145.999C209.163 158.259 230.884 176.264 247.562 198.539C247.798 198.814 248.134 198.985 248.495 199.014C248.857 199.043 249.215 198.927 249.492 198.693C249.74 198.478 249.904 198.182 249.955 197.857C250.006 197.533 249.941 197.201 249.771 196.92C232.546 174.604 210.264 156.699 184.76 144.68C172.188 138.593 158.988 133.898 145.395 130.68C138.593 129.095 131.684 128.008 124.723 127.428C117.763 126.921 110.765 127.448 103.959 128.994Z" fill="#FBFBFB"/>
<path d="M300.691 0.000117045C300.72 1.87602 296.325 25.4575 303.869 79.6717L268.528 125.782L306.973 100.593L313.377 142.418L282.971 181.597L315.683 161.647C315.683 161.647 331.636 196.528 321.188 225.783C315.316 241.951 310.645 247.691 304.478 247.358C300.123 247.042 288.079 234.176 275.815 223.902C263.551 213.627 246.677 194.255 237.863 161.063C235.537 152.131 234.503 142.912 234.793 133.686C236.081 80.0554 274.974 21.4304 300.691 0.000117045Z" fill="#A56BAA"/>
<path d="M300.691 0.000117045C300.72 1.87602 296.325 25.4575 303.869 79.6717L268.528 125.782L306.973 100.593L313.377 142.418L282.971 181.597L315.683 161.647C315.683 161.647 331.636 196.528 321.188 225.783C315.316 241.951 310.645 247.691 304.478 247.358C300.123 247.042 288.079 234.176 275.815 223.902C263.551 213.627 246.677 194.255 237.863 161.063C235.537 152.131 234.503 142.912 234.793 133.686C236.081 80.0554 274.974 21.4304 300.691 0.000117045Z" fill="#A1BEE5"/>
<path d="M256.059 167.065C260.159 180.635 266.195 193.542 273.979 205.389C284.344 219.865 295.585 233.693 307.64 246.795C306.632 247.162 305.563 247.331 304.492 247.291C300.137 246.974 288.093 234.109 275.829 223.835C263.565 213.56 246.691 194.188 237.877 160.996C235.551 152.064 234.517 142.845 234.807 133.619C236.039 80.0518 274.949 21.4198 300.62 0.0283657C267.08 39.8405 247.38 101.711 252.505 149.648C253.194 155.544 254.383 161.371 256.059 167.065Z" fill="#A1BEE5"/>
<path d="M272.081 45.7463C260.025 70.7597 251.729 98.0496 250.881 126.208C250.29 140.266 251.925 154.329 255.725 167.876C259.672 181.36 265.823 194.097 273.93 205.573C273.956 205.579 273.984 205.577 274.009 205.567C274.035 205.557 274.056 205.539 274.071 205.516C274.099 205.496 274.119 205.467 274.128 205.433C274.137 205.4 274.135 205.364 274.121 205.332C267.277 193.308 261.975 180.47 258.339 167.121C254.739 153.767 252.948 139.989 253.017 126.157C253.239 112.299 255.098 98.5158 258.553 85.0925C261.977 71.6223 266.582 58.4796 272.315 45.8173C272.329 45.7845 272.329 45.7474 272.316 45.7142C272.303 45.681 272.277 45.6544 272.244 45.6403C272.211 45.6261 272.174 45.6256 272.141 45.6389C272.108 45.6521 272.081 45.678 272.067 45.7108L272.081 45.7463Z" fill="#FBFBFB"/>
<path d="M92.52 276.492C94.6981 272.954 97.0927 269.553 99.6901 266.31C109.934 253.617 121.715 242.244 134.762 232.453C139.476 228.831 144.611 225.286 149.845 221.99C152.475 220.347 155.143 218.75 157.847 217.242C171.052 209.581 185.441 204.172 200.424 201.239C207.521 199.969 214.748 199.577 221.941 200.071C222.869 200.132 223.807 200.168 224.731 200.272C227.113 200.533 229.421 200.865 231.683 201.235C257.255 205.037 271.6 213.067 286.618 223.351C298.28 231.342 309.365 244.015 310.117 247.757C310.228 248.26 310.268 248.776 310.235 249.29C310.243 254.047 305.573 258.657 293.501 265.191C269.275 278.313 235.513 268.07 235.513 268.07L248.573 236.871L218.451 268.469L186.296 268.645L198.508 238.563L169.601 271.769C121.272 272.359 94.2446 276.236 92.5909 276.464L92.52 276.492Z" fill="#A1BEE5"/>
<path d="M309.668 251.937C296.547 242.415 282.243 234.639 267.116 228.805C251.966 222.698 235.95 219.007 219.653 217.868C211.469 217.573 203.278 218.202 195.235 219.741C187.197 221.16 179.282 223.203 171.561 225.851C156.169 231.168 141.558 238.522 128.119 247.718C128.109 247.748 128.11 247.78 128.122 247.809C128.133 247.839 128.155 247.863 128.182 247.878C128.209 247.887 128.238 247.887 128.264 247.876C128.29 247.866 128.312 247.846 128.324 247.821C142.348 239.847 157.14 233.307 172.475 228.298C180.106 225.796 187.88 223.753 195.755 222.18C203.591 220.514 211.588 219.728 219.597 219.839C235.68 220.708 251.527 224.084 266.566 229.845C281.779 235.341 296.214 242.789 309.509 252C309.542 252.007 309.577 252.004 309.608 251.992C309.64 251.979 309.667 251.958 309.686 251.93L309.668 251.937Z" fill="#FBFBFB"/>
</g>
<defs>
<clipPath id="clip0_8_106">
<rect width="323.443" height="244.012" fill="white" transform="translate(0.227539 119.738) rotate(-21.7279)"/>
</clipPath>
</defs>
</svg>
