<svg width="279" height="244" viewBox="0 0 279 244" fill="none" xmlns="http://www.w3.org/2000/svg">
<g clip-path="url(#clip0_69_693)">
<path d="M56.5154 72.7865L121.557 75.8176L68.2118 86.1755C75.741 97.5008 85.665 107.033 97.282 114.098C97.282 114.098 134.417 110.404 158.953 115.322L113.532 126.884C113.532 126.884 116.482 136.279 126.994 146.034C127.777 146.757 128.619 147.5 129.462 148.243C135.24 153.06 145.231 162.796 158.512 173.415C170.028 182.782 182.401 191.042 195.467 198.085C201.945 201.524 208.648 204.521 215.529 207.058L216.813 207.559L216.933 207.278C221.504 197.376 223.956 186.627 224.132 175.721C224.309 164.815 222.205 153.992 217.957 143.947C213.503 133.44 208.487 123.181 202.93 113.214C153.958 26.4772 59.9662 24.1888 0 43.8407C0 43.8407 31.9392 52.8938 56.5154 72.7865Z" fill="#A56BAA"/>
<path d="M56.5154 72.7865L121.557 75.8176L68.2118 86.1755C75.741 97.5008 85.665 107.033 97.282 114.098C97.282 114.098 134.417 110.404 158.953 115.322L113.532 126.884C113.532 126.884 116.482 136.279 126.994 146.034C127.777 146.757 128.619 147.5 129.462 148.243C135.24 153.06 145.231 162.796 158.512 173.415C170.028 182.782 182.401 191.042 195.467 198.085C201.945 201.524 208.648 204.521 215.529 207.058L216.813 207.559L216.933 207.278C221.504 197.376 223.956 186.627 224.132 175.721C224.309 164.815 222.205 153.992 217.957 143.947C213.503 133.44 208.487 123.181 202.93 113.214C153.958 26.4772 59.9662 24.1888 0 43.8407C0 43.8407 31.9392 52.8938 56.5154 72.7865Z" fill="#A1BEE5"/>
<path d="M97.7832 49.5007C105.007 50.7816 112 53.1361 118.528 56.4863C125.023 59.8293 131.26 63.654 137.186 67.9281C149.031 76.5347 159.89 86.4239 169.566 97.416C189.212 119.153 203.43 145.238 211.055 173.534C211.178 173.896 211.439 174.194 211.782 174.363C212.124 174.532 212.519 174.559 212.881 174.438C213.207 174.324 213.483 174.098 213.659 173.801C213.835 173.503 213.901 173.153 213.844 172.812C205.7 144.262 190.896 118.056 170.649 96.3521C160.733 85.495 149.659 75.755 137.627 67.3059C131.595 63.1034 125.266 59.3464 118.688 56.0647C112.083 52.8542 105.038 50.6421 97.7832 49.5007Z" fill="#FBFBFB"/>
<path d="M340.317 0.000244141C339.615 1.847 326.133 23.2051 312.391 79.1899L259.888 110.524L307.275 100.869L297.244 144.288L252.264 170.765L292.007 164C292.007 164 294.014 204.348 272.407 228.897C260.369 242.427 253.568 246.221 247.67 243.491C243.537 241.483 236.776 224.2 228.791 209.366C220.806 194.532 211.859 168.998 216.172 133.087C217.378 123.441 219.959 114.018 223.836 105.105C245.985 53.1346 306.834 10.9403 340.317 0.000244141Z" fill="#A56BAA"/>
<path d="M340.317 0.000244141C339.615 1.847 326.133 23.2051 312.391 79.1899L259.888 110.524L307.275 100.869L297.244 144.288L252.264 170.765L292.007 164C292.007 164 294.014 204.348 272.407 228.897C260.369 242.427 253.568 246.221 247.67 243.491C243.537 241.483 236.776 224.2 228.791 209.366C220.806 194.532 211.859 168.998 216.172 133.087C217.378 123.441 219.959 114.018 223.836 105.105C245.985 53.1346 306.834 10.9403 340.317 0.000244141Z" fill="#A1BEE5"/>
<path d="M231.619 146.054C230.341 160.929 231.212 175.911 234.207 190.537C238.699 208.741 244.3 226.654 250.979 244.173C249.851 244.14 248.741 243.887 247.709 243.431C243.576 241.423 236.815 224.14 228.83 209.306C220.845 194.472 211.898 168.938 216.211 133.027C217.417 123.381 219.998 113.958 223.875 105.044C245.943 53.1145 306.812 10.9202 340.236 0.000244141C291.946 25.8749 248.592 78.7282 234.929 127.627C233.306 133.665 232.199 139.829 231.619 146.054Z" fill="#A1BEE5"/>
<path d="M294.534 33.6039C273.007 53.3763 254.269 76.8421 242.472 104.062C236.418 117.586 232.538 131.982 230.976 146.718C229.582 161.449 230.633 176.31 234.086 190.699C234.11 190.715 234.138 190.724 234.166 190.724C234.195 190.724 234.223 190.715 234.247 190.699C234.282 190.689 234.313 190.669 234.335 190.639C234.357 190.61 234.368 190.574 234.367 190.538C232.361 176.105 232.179 161.477 233.825 146.999C235.508 132.529 239.124 118.351 244.579 104.845C250.194 91.3729 257.379 78.6117 265.985 66.8255C274.578 54.9812 284.199 43.9181 294.734 33.7645C294.761 33.7379 294.776 33.7018 294.776 33.6642C294.776 33.6265 294.761 33.5904 294.734 33.5638C294.708 33.5372 294.672 33.5222 294.634 33.5222C294.596 33.5222 294.56 33.5372 294.534 33.5638V33.6039Z" fill="#FBFBFB"/>
<path d="M29.1523 189.354C32.6594 186.741 36.3244 184.348 40.1264 182.188C55.0831 173.763 71.0275 167.229 87.5938 162.737C93.6125 161.03 100.012 159.565 106.412 158.381C109.622 157.799 112.852 157.277 116.082 156.855C131.973 154.508 148.144 154.827 163.931 157.799C171.363 159.324 178.579 161.758 185.417 165.045C186.3 165.467 187.203 165.868 188.066 166.33C190.293 167.514 192.419 168.739 194.486 169.983C217.999 183.673 228.892 197.122 239.566 213.041C247.851 225.406 253.75 242.127 253.027 246.081C252.94 246.617 252.778 247.137 252.546 247.627C250.7 252.284 244.34 254.974 229.996 256.66C201.207 260.053 172.196 236.868 172.196 236.868L197.114 211.435L155.364 230.605L123.866 218.24L147.52 193.569L106.332 214.787C58.8646 196.52 30.9379 189.776 29.2326 189.354H29.1523Z" fill="#A1BEE5"/>
<path d="M250.96 249.996C241.844 235.564 230.892 222.379 218.379 210.772C205.949 198.891 191.733 189.035 176.248 181.566C168.364 178.087 160.113 175.508 151.651 173.877C143.242 172.133 134.71 171.045 126.132 170.626C109.017 169.826 91.8715 171.325 75.154 175.082C75.1327 175.107 75.1211 175.139 75.1211 175.172C75.1211 175.205 75.1327 175.237 75.154 175.263C75.176 175.282 75.2046 175.293 75.2342 175.293C75.2638 175.293 75.2924 175.282 75.3145 175.263C92.1273 172.929 109.132 172.297 126.072 173.376C134.506 173.904 142.9 174.936 151.21 176.467C159.518 177.892 167.64 180.241 175.425 183.473C190.806 190.594 204.98 200.076 217.436 211.575C230.165 222.885 241.373 235.8 250.779 249.996C250.809 250.016 250.844 250.026 250.88 250.026C250.915 250.026 250.95 250.016 250.98 249.996H250.96Z" fill="#FBFBFB"/>
</g>
<defs>
<clipPath id="clip0_69_693">
<rect width="279" height="244" fill="white"/>
</clipPath>
</defs>
</svg>
