<svg width="339" height="316" viewBox="0 0 339 316" fill="none" xmlns="http://www.w3.org/2000/svg">
<g clip-path="url(#clip0_35_490)">
<path d="M112.925 73.9694L156.838 102.123L115.682 87.9343C116.374 98.7998 119.445 109.382 124.677 118.931C124.677 118.931 151.92 131.246 166.975 144.483L130.835 134.303C130.835 134.303 129.122 141.996 132.512 152.968C132.765 153.782 133.053 154.635 133.34 155.487C135.421 161.141 138.457 171.89 143.422 184.57C147.663 195.675 152.942 206.356 159.189 216.471C162.308 221.45 165.758 226.212 169.518 230.727L170.208 231.589L170.404 231.442C177.537 226.41 183.54 219.942 188.026 212.453C192.513 204.965 195.384 196.621 196.456 187.957C197.571 178.891 198.196 169.771 198.329 160.638C199.061 80.9043 134.766 41.6688 85.2979 31.2693C85.2979 31.2693 103.834 50.3375 112.925 73.9694Z" fill="#A56BAA"/>
<path d="M112.925 73.9694L156.838 102.123L115.682 87.9343C116.374 98.7998 119.445 109.382 124.677 118.931C124.677 118.931 151.92 131.246 166.975 144.483L130.835 134.303C130.835 134.303 129.122 141.996 132.512 152.968C132.765 153.782 133.053 154.635 133.34 155.487C135.421 161.141 138.457 171.89 143.422 184.57C147.663 195.675 152.942 206.356 159.189 216.471C162.308 221.45 165.758 226.212 169.518 230.727L170.208 231.589L170.404 231.442C177.537 226.41 183.54 219.942 188.026 212.453C192.513 204.965 195.384 196.621 196.456 187.957C197.571 178.891 198.196 169.771 198.329 160.638C199.061 80.9043 134.766 41.6688 85.2979 31.2693C85.2979 31.2693 103.834 50.3375 112.925 73.9694Z" fill="#A1BEE5"/>
<path d="M150.874 74.3611C155.374 78.1425 159.282 82.5752 162.471 87.5121C165.64 92.4311 168.436 97.5801 170.837 102.916C175.612 113.626 179.188 124.83 181.503 136.324C186.434 159.259 185.86 183.034 179.828 205.7C179.769 206 179.831 206.311 180.001 206.566C180.17 206.82 180.433 206.997 180.733 207.058C181.005 207.11 181.287 207.064 181.528 206.928C181.769 206.792 181.955 206.576 182.052 206.317C187.827 183.267 188.042 159.174 182.68 136.021C180.144 124.524 176.359 113.337 171.392 102.662C168.889 97.3328 166.001 92.1934 162.751 87.2842C159.453 82.4131 155.45 78.058 150.874 74.3611Z" fill="#FBFBFB"/>
<path d="M338.949 137.201C337.723 138.2 319.823 147.603 287.886 180.901L238.921 181.588L275.661 193.878L251.327 219.953L209.526 220.287L239.806 231.518C239.806 231.518 225.053 260.286 200.238 268.646C186.473 273.202 180.236 273.107 177.236 268.852C175.172 265.806 177.398 251.119 177.794 237.639C178.19 224.159 182.2 202.878 199.563 179.715C204.259 173.513 209.82 168.015 216.077 163.391C252.24 136.242 311.341 131.372 338.949 137.201Z" fill="#A56BAA"/>
<path d="M338.949 137.201C337.723 138.2 319.823 147.603 287.886 180.901L238.921 181.588L275.661 193.878L251.327 219.953L209.526 220.287L239.806 231.518C239.806 231.518 225.053 260.286 200.238 268.646C186.473 273.202 180.236 273.107 177.236 268.852C175.172 265.806 177.398 251.119 177.794 237.639C178.19 224.159 182.2 202.878 199.563 179.715C204.259 173.513 209.82 168.015 216.077 163.391C252.24 136.242 311.341 131.372 338.949 137.201Z" fill="#A1BEE5"/>
<path d="M205.091 194.891C198.252 204.688 192.862 215.421 189.087 226.758C184.919 241.175 181.637 255.833 179.26 270.651C178.491 270.176 177.821 269.556 177.288 268.827C175.224 265.78 177.45 251.093 177.846 237.613C178.242 224.133 182.252 202.852 199.614 179.689C204.311 173.487 209.872 167.99 216.129 163.365C252.22 136.212 311.335 131.349 338.894 137.169C295.037 135.76 243.808 155.026 214.762 183.445C211.22 186.979 207.985 190.808 205.091 194.891Z" fill="#A1BEE5"/>
<path d="M293.74 142.153C270.893 147.234 248.502 155.992 229.426 170.133C219.814 177.081 211.361 185.505 204.381 195.093C197.519 204.744 192.301 215.465 188.939 226.821C188.949 226.842 188.965 226.859 188.985 226.871C189.005 226.882 189.028 226.887 189.051 226.885C189.079 226.893 189.109 226.891 189.136 226.88C189.162 226.868 189.185 226.848 189.198 226.822C193.582 216.016 199.31 205.804 206.245 196.429C213.203 187.074 221.385 178.696 230.574 171.519C239.861 164.431 249.953 158.465 260.639 153.743C271.341 148.976 282.442 145.162 293.815 142.344C293.844 142.337 293.869 142.318 293.884 142.291C293.899 142.265 293.903 142.234 293.895 142.205C293.887 142.176 293.868 142.151 293.842 142.136C293.816 142.121 293.785 142.117 293.756 142.125L293.74 142.153Z" fill="#FBFBFB"/>
<path d="M47.294 143.8C50.7726 143.394 54.2731 143.203 57.7754 143.229C71.5234 143.38 85.2001 145.239 98.4914 148.761C103.35 149.989 108.376 151.537 113.291 153.279C115.751 154.162 118.2 155.094 120.61 156.096C132.574 160.834 143.666 167.532 153.429 175.916C157.975 179.95 162.008 184.527 165.437 189.545C165.881 190.191 166.346 190.831 166.76 191.496C167.831 193.209 168.817 194.91 169.752 196.6C180.587 215.507 182.764 229.192 183.799 244.5C184.599 256.389 182 270.341 179.917 272.793C179.642 273.129 179.321 273.424 178.964 273.671C175.82 276.16 170.331 275.476 159.705 270.899C138.373 261.719 127.524 234.029 127.524 234.029L154.989 226.382L118.352 222.946L101.447 201.759L127.73 194.135L90.6634 192.342C65.0405 160.668 48.3641 144.807 47.3497 143.832L47.294 143.8Z" fill="#A1BEE5"/>
<path d="M176.917 274.678C176.367 261.024 174.045 247.498 170.008 234.442C166.139 221.228 160.219 208.702 152.465 197.323C148.387 191.753 143.695 186.661 138.477 182.142C133.341 177.564 127.856 173.393 122.073 169.666C110.519 162.256 98.0236 156.427 84.9216 152.335C84.8967 152.344 84.8759 152.361 84.8626 152.384C84.8494 152.407 84.8447 152.434 84.8493 152.46C84.8567 152.482 84.8722 152.501 84.8927 152.513C84.9132 152.525 84.9374 152.529 84.9607 152.524C97.5591 157.641 109.61 164.015 120.931 171.548C126.571 175.292 131.982 179.37 137.134 183.76C142.328 188.075 147.023 192.957 151.131 198.315C158.953 209.411 164.993 221.661 169.032 234.62C173.338 247.558 175.946 260.998 176.791 274.606C176.804 274.631 176.824 274.653 176.849 274.667C176.874 274.681 176.902 274.688 176.931 274.686L176.917 274.678Z" fill="#FBFBFB"/>
</g>
<defs>
<clipPath id="clip0_35_490">
<rect width="272.635" height="205.681" fill="white" transform="translate(102.841 0.883789) rotate(30)"/>
</clipPath>
</defs>
</svg>
