<svg width="185" height="314" viewBox="0 0 185 314" fill="none" xmlns="http://www.w3.org/2000/svg">
<g clip-path="url(#clip0_23_142)">
<path d="M116.546 89.0427L97.3633 135.414L103.793 94.0305C93.6223 96.5351 84.1257 101.244 75.9741 107.824C75.9741 107.824 68.9509 135.715 58.9803 152.223L62.4675 116.272C62.4675 116.272 54.8922 115.959 45.0798 121.036C44.3519 121.415 43.5939 121.832 42.8358 122.25C37.837 125.182 28.1754 129.887 17.0146 136.747C7.22137 142.653 -1.99346 149.469 -10.5075 157.106C-14.6904 160.906 -18.6124 164.984 -22.2469 169.312L-22.9457 170.112L-22.7736 170.273C-16.7941 176.171 -9.64819 180.753 -1.79402 183.727C6.06015 186.7 14.4492 187.998 22.8353 187.539C31.6093 187.051 40.3508 186.09 49.0217 184.661C124.642 171.781 150.848 104.224 152.274 55.6151C152.274 55.6151 137.375 76.4124 116.546 89.0427Z" fill="#A56BAA"/>
<path d="M116.546 89.0427L97.3633 135.414L103.793 94.0305C93.6223 96.5351 84.1257 101.244 75.9741 107.824C75.9741 107.824 68.9509 135.715 58.9803 152.223L62.4675 116.272C62.4675 116.272 54.8922 115.959 45.0798 121.036C44.3519 121.415 43.5939 121.832 42.8358 122.25C37.837 125.182 28.1754 129.887 17.0146 136.747C7.22137 142.653 -1.99346 149.469 -10.5075 157.106C-14.6904 160.906 -18.6124 164.984 -22.2469 169.312L-22.9457 170.112L-22.7736 170.273C-16.7941 176.171 -9.64819 180.753 -1.79402 183.727C6.06015 186.7 14.4492 187.998 22.8353 187.539C31.6093 187.051 40.3508 186.09 49.0217 184.661C124.642 171.781 150.848 104.224 152.274 55.6151C152.274 55.6151 137.375 76.4124 116.546 89.0427Z" fill="#A1BEE5"/>
<path d="M122.637 125.042C119.822 129.946 116.29 134.402 112.159 138.261C108.041 142.099 103.641 145.623 98.9976 148.805C89.6695 155.149 79.6698 160.443 69.1803 164.591C48.3037 173.164 25.6946 176.668 3.2061 174.815C2.91215 174.81 2.6282 174.921 2.41626 175.125C2.20432 175.329 2.08162 175.609 2.07495 175.903C2.07205 176.169 2.16345 176.428 2.33297 176.633C2.5025 176.839 2.73923 176.978 3.00125 177.025C25.8087 178.569 48.6581 174.672 69.6681 165.654C80.1227 161.296 90.0701 155.808 99.3331 149.287C103.953 146.01 108.327 142.401 112.422 138.487C116.473 134.535 119.915 130.004 122.637 125.042Z" fill="#FBFBFB"/>
<path d="M95.1507 313.82C93.9963 312.829 82.046 297.48 45.081 272.909L36.0951 226.663L30.7131 263.543L1.88128 244.941L-5.55064 205.418L-11.0302 236.001C-11.0302 236.001 -40.7811 226.928 -52.9213 204.856C-59.578 192.597 -60.55 186.676 -57.032 183.111C-54.4985 180.638 -40.2131 180.245 -27.3821 178.326C-14.5511 176.406 6.28165 176.58 31.1686 189.077C37.8408 192.468 43.9928 196.798 49.4368 201.935C81.2983 231.555 95.971 286.686 95.1507 313.82Z" fill="#A56BAA"/>
<path d="M95.1507 313.82C93.9963 312.829 82.046 297.48 45.081 272.909L36.0951 226.663L30.7131 263.543L1.88128 244.941L-5.55064 205.418L-11.0302 236.001C-11.0302 236.001 -40.7811 226.928 -52.9213 204.856C-59.578 192.597 -60.55 186.676 -57.032 183.111C-54.4985 180.638 -40.2131 180.245 -27.3821 178.326C-14.5511 176.406 6.28165 176.58 31.1686 189.077C37.8408 192.468 43.9928 196.798 49.4368 201.935C81.2983 231.555 95.971 286.686 95.1507 313.82Z" fill="#A1BEE5"/>
<path d="M17.7394 196.895C7.29812 192.088 -3.78191 188.811 -15.1588 187.166C-29.5188 185.674 -43.9569 185.062 -58.3921 185.334C-58.0732 184.525 -57.6004 183.785 -57.0001 183.156C-54.4666 180.683 -40.1812 180.29 -27.3502 178.371C-14.5192 176.451 6.31355 176.625 31.2005 189.122C37.8727 192.513 44.0247 196.843 49.4687 201.98C81.322 231.531 95.9896 286.676 95.1704 313.761C89.0393 271.995 62.0764 226.768 30.2233 204.104C26.2736 201.352 22.0973 198.94 17.7394 196.895Z" fill="#A1BEE5"/>
<path d="M82.7655 271.855C74.0651 251.087 61.9608 231.378 45.3244 215.722C37.1091 207.804 27.694 201.234 17.4276 196.257C7.12059 191.402 -3.91877 188.287 -15.2434 187.037C-15.2614 187.05 -15.2751 187.068 -15.2826 187.089C-15.2901 187.109 -15.291 187.132 -15.2853 187.153C-15.2879 187.181 -15.2809 187.209 -15.2655 187.233C-15.2501 187.256 -15.2271 187.274 -15.2004 187.282C-4.22172 189.594 6.42205 193.278 16.48 198.249C26.5221 203.245 35.8479 209.566 44.2072 217.045C52.499 224.632 59.8665 233.172 66.1566 242.487C72.492 251.808 77.9934 261.67 82.5968 271.959C82.6092 271.985 82.6314 272.005 82.6587 272.015C82.6859 272.025 82.716 272.024 82.7422 272.011C82.7685 271.999 82.7887 271.977 82.7985 271.949C82.8084 271.922 82.807 271.892 82.7946 271.866L82.7655 271.855Z" fill="#FBFBFB"/>
<path d="M39.2528 38.787C40.2294 42.0116 41.0058 45.2935 41.5778 48.6141C43.7743 61.6574 44.343 74.9235 43.2707 88.108C42.9348 92.9174 42.3248 97.9403 41.5112 102.89C41.0946 105.369 40.629 107.848 40.0908 110.3C37.641 122.435 33.1866 134.078 26.9108 144.749C23.8649 149.74 20.2172 154.338 16.0498 158.438C15.5139 158.969 14.9873 159.518 14.4276 160.024C12.9881 161.329 11.5457 162.552 10.1045 163.725C-5.95323 177.203 -18.5407 181.593 -32.859 185.179C-43.9801 187.961 -57.633 187.875 -60.309 186.32C-60.6739 186.117 -61.0085 185.864 -61.3028 185.567C-64.1942 183.014 -64.4817 177.701 -61.9568 166.859C-56.8952 145.099 -32.5241 130.113 -32.5241 130.113L-20.6086 154.816L-23.5913 119.541L-6.40786 99.9284L5.28516 123.516L0.672636 88.1148C26.3018 58.4618 38.4811 39.9717 39.2319 38.8452L39.2528 38.787Z" fill="#A1BEE5"/>
<path d="M-62.6046 183.8C-49.7697 180.956 -37.3584 176.454 -25.6827 170.409C-13.8296 164.497 -2.9774 156.759 6.47746 147.48C11.0565 142.671 15.0795 137.361 18.4704 131.651C21.9306 126.009 24.9466 120.105 27.4909 113.995C32.5403 101.793 35.9325 88.97 37.5769 75.8677C37.5641 75.8457 37.5439 75.8289 37.52 75.8203C37.4961 75.8116 37.4699 75.8117 37.446 75.8205C37.4259 75.8314 37.4106 75.8492 37.4028 75.8707C37.3951 75.8922 37.3955 75.9158 37.4041 75.9369C34.7034 88.7369 30.7201 101.232 25.5145 113.234C22.9296 119.211 19.9894 125.029 16.7099 130.655C13.5082 136.307 9.68478 141.584 5.3109 146.386C-3.86461 155.681 -14.4351 163.485 -26.0181 169.516C-37.5349 175.795 -49.8173 180.552 -62.5574 183.669C-62.5796 183.686 -62.5964 183.708 -62.6057 183.734C-62.615 183.76 -62.6165 183.788 -62.6098 183.815L-62.6046 183.8Z" fill="#FBFBFB"/>
</g>
<defs>
<clipPath id="clip0_23_142">
<rect width="262.285" height="197.873" fill="white" transform="translate(184.031 67.0535) rotate(109.808)"/>
</clipPath>
</defs>
</svg>
