<svg width="183" height="53" viewBox="0 0 183 53" fill="none" xmlns="http://www.w3.org/2000/svg">
<path d="M0.10686 2.54714C0.10686 2.21094 0.0674902 1.85764 0.0562417 1.49295C0.0449932 1.12826 0.022497 0.849043 0 0.655301V0H0.719904C2.46822 0.0658148 4.20379 0.329571 5.89422 0.786359C7.65266 1.24343 9.33938 1.94733 10.9054 2.87763C12.4268 3.77434 13.7835 4.93107 14.9155 6.29661C16.0517 7.6745 16.8255 9.32104 17.1652 11.0832C17.2114 11.3507 17.2396 11.621 17.2496 11.8923C17.2496 12.2001 17.2833 12.5078 17.2833 12.8212C17.2833 13.1346 17.2833 13.4423 17.2833 13.7329C17.2785 13.9767 17.2484 14.2192 17.1933 14.4566C16.8521 16.2131 16.0783 17.8537 14.9436 19.2261C13.8336 20.5851 12.502 21.7415 11.0067 22.645C9.4733 23.5727 7.8158 24.2713 6.08544 24.7192C4.40208 25.1695 2.66904 25.4012 0.928003 25.4087C0.843964 25.4193 0.75895 25.4193 0.674911 25.4087C0.674911 25.4087 0.629915 25.3403 0.607418 25.2435C0.569235 25.0406 0.550402 24.8345 0.551177 24.628C0.551177 24.3089 0.523056 23.9841 0.494935 23.6422C0.466814 23.3003 0.461189 22.9926 0.461189 22.7134C0.461189 22.4342 0.461189 22.2974 0.494935 22.2974C0.528681 22.2974 0.545552 22.2462 0.641165 22.2234C0.750178 22.1942 0.857253 22.158 0.961747 22.1151L1.43418 21.9669L1.36107 21.5339C1.36107 21.3401 1.36107 21.0438 1.3217 20.6563C1.28233 20.2689 1.25983 19.6933 1.19797 18.9468C1.1361 18.2004 1.06861 17.169 0.984245 15.904C0.899881 14.6389 0.798645 13.0548 0.674911 11.1345C0.60742 10.143 0.539928 9.16286 0.478061 8.20555C0.416194 7.24823 0.365577 6.37639 0.314959 5.60142C0.264341 4.82645 0.22497 4.17116 0.191225 3.63552C0.157479 3.09988 0.129357 2.71809 0.10686 2.54714ZM7.63211 8.63292L7.70523 9.57884L7.91895 14.8953C7.91895 15.619 7.95832 16.1091 7.97519 16.3484C7.99207 16.5878 8.01456 16.7131 8.06518 16.7131C8.19959 16.6752 8.33116 16.6276 8.45888 16.5706C10.8773 15.3284 11.7041 13.7861 10.9392 11.9436C10.6573 11.3153 10.2603 10.7468 9.76933 10.2683C9.21537 9.6956 8.5939 9.19418 7.91895 8.77538L7.63211 8.63292Z" fill="black"/>
<path d="M18.4595 15.3818C18.2466 13.9045 18.2466 12.4044 18.4595 10.9271C18.6593 9.48207 19.0828 8.07677 19.7151 6.76147C20.1532 5.84014 20.6945 4.97125 21.3285 4.1714C21.9658 3.36741 22.7048 2.6492 23.5272 2.03473C24.3408 1.42143 25.238 0.927153 26.1917 0.566838C27.1596 0.194168 28.1879 0.00206131 29.2255 8.31201e-05C30.8173 -0.00668142 32.3835 0.39955 33.7705 1.17892C35.2317 2.0058 36.4712 3.17236 37.3837 4.57946C38.1827 5.78346 38.7777 7.11037 39.1449 8.50706C39.5403 9.93799 39.7052 11.4225 39.6335 12.9051C39.5824 14.0889 39.3917 15.2626 39.0654 16.402C38.7487 17.5506 38.2928 18.6564 37.7076 19.6948C37.126 20.7184 36.4052 21.6568 35.5657 22.4832C34.7213 23.3155 33.7391 23.9961 32.6626 24.4952C32.2758 24.7088 31.8661 24.878 31.4411 24.9996C31.0571 25.1259 30.664 25.2225 30.2651 25.2887C29.9243 25.3397 29.4811 25.3737 28.9414 25.402C28.5226 25.4306 28.102 25.4173 27.6858 25.3623C26.4607 25.2457 25.2769 24.8585 24.2203 24.2288C23.1796 23.6321 22.2464 22.8658 21.4592 21.9618C20.6487 21.038 19.984 19.9965 19.4878 18.873C18.9999 17.7568 18.6545 16.5839 18.4595 15.3818ZM25.4247 12.2646C25.3565 12.873 25.3565 13.4869 25.4247 14.0953C25.4912 14.6709 25.6071 15.2397 25.7713 15.7955C25.9172 16.3 26.1313 16.7824 26.4076 17.2294C26.6308 17.603 26.9263 17.9286 27.2768 18.1872C27.6062 18.4276 28.0049 18.5549 28.413 18.55C28.7257 18.5555 29.036 18.4952 29.3238 18.3732C29.6116 18.2511 29.8704 18.07 30.0833 17.8415C30.5622 17.3481 30.9472 16.772 31.2196 16.1412C31.5145 15.4891 31.7226 14.8012 31.8388 14.0953C31.9487 13.4928 32.0095 12.8825 32.0206 12.2703C32.012 11.7233 31.9626 11.1777 31.8729 10.6381C31.7821 10.0238 31.618 9.42259 31.3843 8.84712C31.1722 8.3045 30.8513 7.81079 30.4412 7.39623C30.2441 7.20002 30.0089 7.04603 29.75 6.9437C29.4912 6.84137 29.2141 6.79285 28.9357 6.80113C28.7957 6.793 28.6553 6.793 28.5153 6.80113C28.3801 6.83438 28.2515 6.88994 28.1347 6.96549C27.3501 7.38784 26.7256 8.05463 26.3564 8.86412C25.8272 9.92644 25.5108 11.0815 25.4247 12.2646Z" fill="black"/>
<path d="M52.9651 25.3686C51.337 25.1639 49.7386 24.769 48.2033 24.192C46.6513 23.621 45.1986 22.8116 43.8982 21.7933C42.6405 20.8118 41.5874 19.5953 40.7978 18.2122C39.9933 16.7722 39.5985 15.1411 39.6559 13.4943C39.6461 11.8887 40.0281 10.3048 40.7692 8.87874C41.5093 7.4429 42.4729 6.13262 43.6241 4.99643C44.8182 3.82566 46.162 2.81655 47.6209 1.99515C49.0059 1.19888 50.482 0.571027 52.0173 0.125053C52.2427 0.0517173 52.4771 0.00963668 52.7139 0C52.7654 0.00911452 52.8131 0.0326808 52.8516 0.0679302C52.89 0.10318 52.9175 0.148637 52.9309 0.198942C53.049 0.471619 53.1519 0.750569 53.2392 1.03452L53.8102 2.65452C54.0329 3.26841 54.2498 3.91073 54.4725 4.57578C54.6952 5.24084 54.8836 5.832 55.0435 6.33789C55.2033 6.84379 55.4032 7.31557 55.5345 7.7362C55.6007 7.99288 55.6925 8.24233 55.8086 8.48083C55.8719 8.59237 55.909 8.71676 55.9171 8.84463C55.9171 8.84463 55.8428 8.9299 55.7001 9.02653C55.5574 9.12316 55.3803 9.22546 55.1862 9.33347L54.6609 9.62337C54.5649 9.68523 54.4586 9.72952 54.3469 9.75411C54.2784 9.75411 54.1642 9.54948 54.0214 9.13453C53.9244 8.86737 53.8559 8.69684 53.8216 8.62863C53.7873 8.56042 53.7417 8.51494 53.6903 8.51494C53.2575 8.73885 52.8381 8.98749 52.4342 9.25959C51.9812 9.56534 51.5483 9.89947 51.138 10.26C50.7363 10.6129 50.3692 11.0031 50.0418 11.4253C49.7499 11.7936 49.5274 12.2115 49.3852 12.6587C49.2363 13.2405 49.2886 13.8552 49.5336 14.4038C49.7912 14.8867 50.1517 15.3076 50.5899 15.6373C51.1393 16.0698 51.7394 16.4343 52.3771 16.7229C52.5483 16.7968 52.7881 16.8878 53.0908 16.9958C53.3934 17.1038 53.7074 17.2175 54.0386 17.3255L54.9521 17.6154L55.5231 17.7802C55.6658 17.7802 55.7401 17.8541 55.7401 17.9223C55.7401 18.0928 55.5212 19.3415 55.0834 21.6682C54.9122 22.5834 54.7808 23.2939 54.6838 23.7884C54.5867 24.283 54.5068 24.6411 54.444 24.8627C54.3812 25.0844 54.3469 25.2095 54.3355 25.2436C54.3274 25.2642 54.3152 25.283 54.2994 25.2986C54.2837 25.3143 54.2649 25.3265 54.2441 25.3345C54.1413 25.4312 53.7188 25.4425 52.9651 25.3686Z" fill="black"/>
<path d="M62.8735 25.0474L57.8484 24.7521C56.6121 24.6839 55.9797 24.6328 55.9569 24.6101C55.9341 24.5874 55.917 24.4965 55.917 24.2636V23.4855C55.917 23.1939 55.917 22.9156 55.917 22.6506C55.917 22.3836 55.917 22.2019 55.917 22.0826L55.9854 21.7929H57.0451C57.0451 21.7929 57.0451 21.4181 57.1191 20.7422C57.1932 20.0663 57.216 19.2541 57.2673 18.3056C57.2673 17.8229 57.3128 17.3174 57.3356 16.7835C57.3584 16.2496 57.3926 15.7214 57.4268 15.1875C57.461 14.6536 57.4952 14.1538 57.518 13.6824C57.5407 13.2109 57.5692 12.819 57.592 12.501C57.6889 10.7971 57.78 9.09318 57.8655 7.38927C57.951 5.68537 58.0535 4.00986 58.1732 2.27756C58.2254 1.96577 58.2559 1.65073 58.2643 1.33473C58.2643 0.993948 58.2985 0.738359 58.3213 0.567968L58.3555 0L59.7058 0.0340854H59.9963C60.1056 0.0374528 60.2143 0.0507562 60.3211 0.0738387L61.7454 0.107915C61.8536 0.101646 61.962 0.101646 62.0702 0.107915C62.1668 0.116363 62.2641 0.116363 62.3607 0.107915L63.09 0.176077C63.3806 0.204476 63.711 0.22151 64.0756 0.232869C64.4403 0.244228 64.8106 0.261271 65.2151 0.289669L66.3546 0.357823C67.0782 0.40894 67.8473 0.448695 68.6336 0.488453C69.4198 0.528211 70.0408 0.567969 70.4567 0.613407L71.8355 0.704284L73.0775 0.795161L74.217 0.868991V1.01098C74.217 1.0621 74.217 1.37449 74.217 1.9595C74.217 2.5445 74.1714 3.21471 74.1258 3.98715C74.0803 4.75959 74.0347 5.47522 73.9948 6.06023C73.9549 6.64524 73.9435 6.95194 73.9435 7.00306V7.14505L73.2484 7.11097H72.616C72.4252 7.10201 72.2351 7.08305 72.0463 7.05417C71.9039 7.05417 71.619 7.00873 71.1917 6.98034L69.8984 6.9065C69.4654 6.86106 69.0267 6.82698 68.588 6.79858C68.1493 6.77018 67.8473 6.75315 67.6821 6.73043C67.5169 6.70771 67.2776 6.73042 66.987 6.69067C66.6964 6.65091 66.4173 6.65659 66.1894 6.65659L65.312 6.61683L65.2778 7.1848C65.2778 7.34951 65.2322 7.57671 65.2208 7.85501C65.2094 8.13332 65.2208 8.42298 65.2208 8.63313C65.2208 8.84327 65.1809 9.07614 65.1695 9.30332C65.1581 9.53051 65.1695 9.68386 65.1695 9.75769C65.1695 9.9508 65.1695 10.0701 65.2607 10.1042C65.566 10.1806 65.8763 10.2357 66.1894 10.2689L68.155 10.5017C68.3473 10.5146 68.538 10.545 68.7247 10.5926C68.7704 10.8206 68.7839 11.0538 68.7646 11.2855V12.8077C68.7646 13.3757 68.7646 13.8755 68.7646 14.3298C68.7736 14.5733 68.7564 14.817 68.7133 15.0568H68.4398H68.2575C68.1855 15.0512 68.1131 15.0512 68.041 15.0568C67.6451 14.9591 67.2437 14.8851 66.8389 14.8353L65.6367 14.6933C65.4763 14.6494 65.3124 14.619 65.1468 14.6025H64.9075C64.8619 15.3749 64.822 16.0053 64.7992 16.4881C64.7764 16.9709 64.7536 17.4309 64.7251 17.8683C64.6967 18.3056 64.691 18.5839 64.691 18.7032V18.919L66.4742 19.0269C66.9585 19.0781 67.4428 19.1121 67.9157 19.1349C68.3886 19.1576 68.719 19.1746 68.9127 19.1746C69.1064 19.1746 69.4084 19.2201 69.8072 19.2485L70.9866 19.3166C71.4025 19.3677 71.7443 19.3961 72.0064 19.4075C72.1547 19.4042 72.3026 19.4234 72.4451 19.4643V20.1742C72.4438 20.3244 72.4324 20.4743 72.4109 20.6229C72.3824 20.941 72.3596 21.384 72.3369 21.952C72.3141 22.5199 72.2742 23.0425 72.2286 23.5309C72.1773 24.2806 72.1488 24.7634 72.1375 24.9793C72.1467 25.1178 72.115 25.256 72.0463 25.3768C72.0351 25.3899 72.0211 25.4003 72.0053 25.4072C71.9895 25.414 71.9724 25.4173 71.9551 25.4166H71.5905C71.3854 25.4166 71.0606 25.4166 70.6276 25.3768C70.1946 25.3371 69.5565 25.3314 68.7304 25.3087C68.3658 25.3087 67.9385 25.2575 67.4428 25.2348L65.9102 25.161L64.3263 25.0872L62.8735 25.0474Z" fill="black"/>
<path d="M88.7557 4.05439H86.4212V1.12843C86.4092 0.921553 86.4227 0.713999 86.4612 0.510348L86.4954 0.294867L87.0662 0.255178C87.2831 0.255178 87.7625 0.209812 88.4874 0.181459L90.8447 0.113416L93.2134 0.0396975C93.9554 0.0396975 94.4577 0 94.7259 0H95.6734L95.7476 1.16245C95.7933 2.71049 95.8389 3.99768 95.8732 5.07507C95.9074 6.15246 95.9474 7.10511 95.9816 7.97269C96.0159 8.84027 96.0558 9.70217 96.0958 10.5471C96.1357 11.392 96.17 12.3843 96.2213 13.5184C96.2213 13.9267 96.2613 14.4881 96.2784 15.2196C96.2956 15.951 96.307 16.5805 96.3298 17.1588L96.404 19.1889H96.6665C96.7501 19.1961 96.8341 19.1961 96.9177 19.1889L97.4885 19.1549C97.7681 19.1549 98.1563 19.1208 98.6585 19.0811C99.1608 19.0415 99.8457 19.0018 100.719 18.9564L101.975 18.8827C102.403 18.8827 102.7 18.8487 102.871 18.8487L103.493 18.809L103.527 19.0641C103.527 19.1379 103.527 19.4611 103.561 20.0451C103.596 20.6292 103.613 21.287 103.636 22.0355C103.636 22.6025 103.676 23.0505 103.693 23.4134C103.71 23.7763 103.693 24.0541 103.693 24.2469C103.701 24.3848 103.701 24.523 103.693 24.6609C103.687 24.7194 103.667 24.7757 103.636 24.8253C103.636 24.8764 103.447 24.9047 103.145 24.9161C102.842 24.9274 102.289 24.9557 101.484 25.0068H100.519C100.165 25.0068 99.8058 25.0408 99.4405 25.0635L98.3674 25.1145C98.0136 25.1145 97.7054 25.1485 97.4371 25.1712L95.3766 25.262C94.6118 25.296 93.8698 25.33 93.1506 25.3527L91.2557 25.4094H90.1769C90.0382 25.4191 89.899 25.4191 89.7602 25.4094C89.7289 25.4008 89.7003 25.3842 89.6773 25.3614C89.6543 25.3385 89.6376 25.3101 89.629 25.279C89.5348 24.87 89.4927 24.4509 89.5034 24.0315C89.4691 23.2433 89.4235 22.2623 89.3778 21.0771C89.3778 20.6405 89.3778 19.9431 89.3379 19.0301C89.2979 18.1172 89.2865 17.0625 89.2465 15.9114C89.2066 14.7602 89.1666 13.5694 89.121 12.3276C89.0753 11.0858 89.0297 9.929 88.9954 8.86862C88.9612 7.80824 88.9269 6.90665 88.9041 6.16949C88.8813 5.43232 88.8527 4.97867 88.8299 4.80856L88.7557 4.05439Z" fill="black"/>
<path d="M103.773 23.3765C103.749 23.365 103.73 23.3463 103.717 23.323C103.704 23.2997 103.698 23.2728 103.701 23.2462C103.713 23.1175 103.737 22.9904 103.773 22.8665C103.84 22.6058 103.912 22.3281 103.984 22.0334C104.057 21.7388 104.14 21.4667 104.234 21.1664C104.279 21.0474 104.368 20.713 104.501 20.169C104.635 19.625 104.79 19.0356 104.979 18.3782C105.168 17.7208 105.313 17.1428 105.407 16.7688C105.502 16.3947 105.585 16.066 105.652 15.7884C105.719 15.5107 105.802 15.2217 105.885 14.9383C105.969 14.655 106.08 14.2413 106.224 13.7086C106.369 13.1759 106.447 12.7962 106.541 12.4222C106.636 12.0481 106.697 11.8101 106.719 11.7138C106.79 11.5459 106.844 11.3713 106.88 11.1924C106.936 10.9374 107.003 10.6654 107.075 10.3763C107.169 10.1156 107.245 9.84865 107.303 9.57729C107.341 9.39333 107.395 9.21318 107.464 9.03893C107.495 8.93684 107.519 8.83269 107.536 8.72723C107.556 8.60958 107.592 8.49521 107.642 8.38721L107.731 8.02453C107.77 7.87718 107.798 7.74685 107.82 7.62217C107.87 7.40683 107.948 7.1008 108.053 6.69844C108.159 6.29608 108.264 5.89938 108.37 5.48569C108.476 5.07199 108.576 4.71497 108.67 4.40328C108.765 4.0916 108.815 3.91592 108.815 3.89325C108.815 3.87058 108.815 3.81391 108.815 3.80258C108.726 3.79305 108.637 3.79305 108.548 3.80258C108.337 3.85358 108.226 3.83658 108.226 3.76858L108.298 2.68052C108.298 2.3915 108.298 2.11381 108.298 1.79079C108.302 1.58006 108.321 1.36988 108.353 1.16174C108.353 0.918062 108.415 0.787716 108.459 0.759381C108.705 0.706382 108.953 0.670407 109.204 0.651706C109.348 0.651706 109.76 0.589367 110.521 0.544031C111.283 0.498695 112.072 0.436362 112.973 0.36269C113.417 0.36269 113.862 0.306018 114.301 0.272015L115.53 0.181341C115.908 0.181341 116.23 0.13601 116.502 0.107675C116.775 0.0793399 116.958 0.0736743 117.058 0.0736743C117.614 0.0226709 117.998 0 118.231 0C118.465 0 118.609 2.76981e-06 118.659 0.0736743C118.818 0.339682 118.956 0.618263 119.071 0.90673C119.293 1.4111 119.665 2.28382 120.182 3.51357L121.033 5.54236C121.083 5.61603 121.222 5.92772 121.461 6.48309C121.7 7.03846 121.955 7.66751 122.239 8.36455C122.383 8.70458 122.528 9.05592 122.684 9.41294L123.128 10.45C123.273 10.773 123.395 11.0677 123.501 11.3341C123.606 11.6004 123.695 11.8044 123.768 11.9518C123.884 12.2408 124.001 12.5185 124.107 12.7622C124.212 13.0058 124.279 13.1702 124.301 13.2155C124.349 13.2673 124.385 13.3292 124.407 13.3969C124.426 13.4592 124.45 13.5199 124.479 13.5782C124.524 13.7029 124.663 14.0203 124.885 14.5416C125.107 15.063 125.402 15.743 125.758 16.5874C126.041 17.2845 126.269 17.8285 126.43 18.2139C126.591 18.5992 126.753 18.9619 126.892 19.3019C127.031 19.642 127.119 19.795 127.069 19.8686C126.98 19.9256 126.885 19.973 126.786 20.0103L126.23 20.2653L124.562 21.0247C124.301 21.1494 124.007 21.2684 123.762 21.3874C123.517 21.5064 123.284 21.6027 123.139 21.6764L122.645 21.8918L122.089 22.1468C121.427 22.4641 120.977 22.6625 120.794 22.7475C120.61 22.8325 120.482 22.8608 120.46 22.8382C120.352 22.6557 120.256 22.4664 120.171 22.2715C120.01 21.9314 119.815 21.5234 119.615 21.036C119.415 20.5487 119.221 20.1463 119.059 19.8063C118.898 19.4663 118.815 19.2906 118.793 19.2396C118.676 19.2671 118.557 19.2804 118.437 19.2793L118.048 19.3529C117.903 19.3529 117.742 19.4096 117.547 19.4606L116.664 19.676C116.352 19.7496 116.024 19.8233 115.669 19.8913L114.44 20.1463L112.828 20.475C112.669 20.5205 112.508 20.5565 112.345 20.5827C112.194 20.5827 112.055 20.628 111.939 20.6564C111.823 20.7026 111.704 20.7386 111.583 20.764C111.491 20.9809 111.415 21.2044 111.355 21.4327C111.222 21.8578 111.088 22.3281 110.944 22.8438C110.799 23.3595 110.671 23.8526 110.555 24.3116C110.438 24.7706 110.366 25.0483 110.338 25.1446C110.31 25.241 110.232 25.4053 110.16 25.4167C109.953 25.3933 109.75 25.3379 109.56 25.2523C109.348 25.207 108.937 25.0823 108.331 24.8896L106.452 24.2776L104.657 23.6826L103.773 23.3765ZM113.112 15.1933C112.995 15.5787 112.928 15.8054 112.917 15.879C112.906 15.9527 112.917 15.964 113.039 15.9187C113.274 15.8758 113.505 15.8209 113.734 15.7544C114.151 15.6467 114.629 15.5277 115.174 15.4087H115.135C115.691 15.2897 116.147 15.182 116.541 15.0857C116.753 15.0431 116.962 14.9825 117.164 14.9043L117.125 14.8306C117.127 14.7684 117.116 14.7064 117.092 14.6493C117.011 14.5342 116.951 14.4057 116.914 14.2696C116.841 14.0656 116.758 13.8502 116.664 13.6349C116.569 13.4195 116.464 13.1532 116.347 12.8358L116.024 12.0028C115.93 11.7648 115.824 11.5041 115.708 11.2264C115.608 11.0103 115.524 10.7868 115.457 10.5577C115.385 10.3877 115.313 10.2177 115.246 10.0477L115.068 9.65096C115.025 9.54567 114.988 9.4378 114.957 9.32794C114.943 9.24566 114.906 9.16911 114.851 9.10693C114.84 9.03678 114.815 8.96949 114.779 8.90858C114.779 8.87458 114.713 8.98225 114.64 9.23726C114.568 9.49228 114.457 9.92865 114.301 10.5577C114.146 11.1867 113.907 12.1275 113.573 13.3912C113.478 13.7312 113.39 14.0713 113.306 14.4056C113.223 14.74 113.162 15.0006 113.112 15.1933Z" fill="black"/>
<path d="M127.008 4.15495C126.67 4.1776 126.483 4.16628 126.445 4.12097C126.389 3.92492 126.351 3.72394 126.333 3.52074C126.288 3.16966 126.237 2.79026 126.192 2.38821C126.147 1.98617 126.108 1.6011 126.085 1.25568C126.063 0.910262 126.057 0.746049 126.085 0.746049C126.327 0.687887 126.574 0.651876 126.822 0.638458C127.289 0.593157 127.857 0.542194 128.509 0.496893C130.238 0.349665 131.61 0.240186 132.626 0.16846C133.644 0.0948458 134.431 0.0495479 134.999 0.0212348C135.567 -0.00707827 135.972 -0.00707827 136.236 0.0212348C136.489 0.0329602 136.741 0.0632345 136.99 0.11183C139.959 0.549739 141.793 1.93708 142.49 4.27386C142.6 4.64213 142.666 5.02233 142.687 5.40638C142.727 5.81496 142.727 6.2266 142.687 6.63518C142.581 7.33715 142.374 8.01995 142.074 8.66239C141.769 9.33978 141.392 9.98159 140.949 10.5764C140.5 11.1744 139.993 11.7263 139.436 12.2242C138.91 12.6988 138.346 13.1287 137.749 13.5096L137.316 13.8324C137.772 14.0759 138.267 14.3307 138.79 14.5968L140.409 15.4066L142.316 16.4485C143.007 16.8109 143.665 17.1507 144.29 17.4621L145.926 18.2775C146.395 18.504 146.76 18.6928 147.023 18.8438C147.167 18.9043 147.3 18.9885 147.416 19.0929C147.356 19.3285 147.279 19.5594 147.186 19.7838L146.663 21.1428L146.1 22.5358C145.932 22.9662 145.825 23.2323 145.78 23.3286C145.442 24.2459 145.218 24.8065 145.133 25.0274C145.049 25.2482 144.964 25.3218 144.914 25.2992C144.631 25.1623 144.355 25.0111 144.087 24.8461C143.564 24.546 142.906 24.1666 142.13 23.7136C141.354 23.2606 140.499 22.7623 139.577 22.23C138.655 21.6977 137.789 21.1938 136.973 20.7124C136.685 20.5218 136.385 20.3515 136.073 20.2028L135.719 19.9876C135.743 20.2038 135.754 20.4213 135.753 20.6388C135.753 20.8314 135.792 21.0692 135.803 21.341C135.815 21.6128 135.837 21.9072 135.86 22.23C135.91 22.8586 135.95 23.4022 135.983 23.8552C136.013 24.1091 136.013 24.3657 135.983 24.6196C135.955 24.7159 135.91 24.7669 135.837 24.7782C135.764 24.7895 135.55 24.8235 135.19 24.8688C135.022 24.8688 134.814 24.8688 134.56 24.9084C134.307 24.9481 134.088 24.9537 133.897 24.9821L132.423 25.1236C132.21 25.1236 131.929 25.1746 131.58 25.1972C131.273 25.217 130.967 25.2529 130.663 25.3048C130.399 25.3048 130.151 25.3501 129.926 25.3614C129.788 25.3594 129.65 25.3765 129.516 25.4124C129.402 25.4277 129.286 25.4016 129.19 25.3388C129.139 25.3388 129.1 25.1916 129.066 24.9594C129.032 24.7272 128.987 24.3025 128.937 23.6796C128.892 23.221 128.852 22.7793 128.83 22.3546C128.807 21.9299 128.779 21.6411 128.757 21.4712C128.757 20.7691 128.656 19.6082 128.526 17.9774C128.397 16.3466 128.206 14.0136 127.964 11.0124C127.891 10.095 127.823 9.23997 127.767 8.44721C127.711 7.65444 127.649 6.94662 127.604 6.34638C127.559 5.74614 127.52 5.25916 127.497 4.89675C127.475 4.53434 127.458 4.33049 127.458 4.33049V4.18892L127.008 4.15495ZM134.555 5.42337L134.589 6.03493C134.589 6.35203 134.645 6.70312 134.679 7.10517C134.712 7.50722 134.752 7.87529 134.785 8.23769C134.819 8.6001 134.864 9.00215 134.915 9.48348C134.915 9.53444 135.112 9.45516 135.432 9.25131C135.753 9.04745 136.062 8.83228 136.349 8.6171C136.836 8.26087 137.24 7.8031 137.535 7.27504C137.777 6.74842 137.749 6.36336 137.462 6.14252C137.212 5.85902 136.879 5.66112 136.512 5.57625C135.973 5.46732 135.424 5.41983 134.875 5.43469L134.555 5.42337Z" fill="black"/>
<path d="M71.1417 21.2972L64.2761 41.5472C63.488 44.5799 63.7211 46.2716 66.0134 44.0763C67.4623 42.5761 68.8156 40.983 70.065 39.3066L70.9364 39.9403C69.5504 41.8721 68.0684 43.7303 66.4962 45.5078C65.253 46.8205 64.0097 47.9125 62.772 47.771C60.7018 47.6465 60.3688 45.8303 60.552 43.9349C60.7185 42.8768 60.9238 41.7396 61.218 40.5401C60.7066 41.4404 60.1099 42.2875 59.4364 43.0692C58.2375 44.5912 57.2163 45.3324 56.1673 45.3946C55.0073 45.4343 54.4301 44.7157 54.0971 43.7878C53.2701 41.1738 55.0073 36.7888 56.578 35.1423C58.4429 33.1168 61.3401 33.0319 62.2503 36.704C64.0708 30.6273 66.6905 23.7924 67.7117 18.3947C68.9217 17.7949 71.447 20.1996 71.1417 21.2972ZM57.1996 40.9135C57.1552 42.809 57.8601 42.809 58.8924 42.0451C60.0537 41.0507 61.0101 39.8315 61.7064 38.4579L61.834 38.0392C61.1736 34.9613 59.5585 34.8312 58.6871 36.1382C57.8278 37.5865 57.3233 39.2244 57.2163 40.9135H57.1996Z" fill="black"/>
<path d="M81.4686 36.5019C79.3405 40.822 78.0361 47.2681 81.4686 44.045C82.9645 42.5244 84.3613 40.9106 85.6505 39.2133L86.4171 39.975C84.8382 42.0555 83.6482 43.6187 82.0235 45.4036C80.7478 46.7565 79.3805 47.8991 78.0991 47.774C75.9709 47.6489 75.6277 45.8243 75.8107 43.92C75.9392 42.8832 76.1671 41.8611 76.4915 40.8675C75.9973 41.6327 75.4566 42.3673 74.8725 43.0673C73.6368 44.5964 72.5842 45.3411 71.503 45.4036C70.3073 45.4434 69.7124 44.7215 69.3691 43.7892C68.797 41.9702 69.3291 39.2986 70.3073 37.2636C71.2856 35.2285 73.2078 33.1935 75.5533 33.9609C76.5373 34.2963 77.4297 35.1888 77.8416 36.8031C78.1391 35.8709 78.4137 34.8534 78.7798 33.6256C79.638 33.1935 81.9377 34.6772 81.4686 36.5019ZM72.5499 40.8675C72.5499 42.7717 73.2764 42.7717 74.3405 42.0043C75.5871 40.9038 76.6154 39.5812 77.3725 38.1048C76.9892 36.3995 76.2627 35.5639 75.5361 35.3934C74.3005 35.0523 73.4481 36.8372 73.1506 37.7695C72.8223 38.7735 72.6206 39.8141 72.5499 40.8675Z" fill="black"/>
<path d="M98.6987 35.1886C97.0143 34.8473 95.2893 39.0298 95.1619 42.0496C94.9883 45.5206 96.8001 45.3702 98.8724 43.8198C100.401 42.5266 101.762 41.0477 102.924 39.4175L103.7 39.996C102.392 41.7727 100.948 43.4457 99.3818 45C98.4368 45.885 97.3778 46.6398 96.2328 47.2446C94.2068 48.2801 92.1345 47.8925 91.6599 45.4744C91.4339 44.2045 91.4476 42.9037 91.7004 41.6389C92.1345 39.0935 93.3443 36.4324 94.8957 34.9514C96.9679 32.9267 100.03 32.8804 100.893 36.2473C101.113 36.8258 100.244 36.982 100.076 36.6754C99.7349 35.7093 99.2139 35.2349 98.6987 35.1886Z" fill="black"/>
<path d="M100.687 45.7353L104.17 33.663C105.572 33.0192 108.108 35.2899 107.811 36.3649L106.798 38.8369C109.377 35.882 112.496 33.0077 114.577 35.3244C115.184 36.2672 115.032 39.4807 112.811 39.5669C112.089 36.0487 109.17 37.1237 106.027 40.6362C105.214 42.608 104.261 45.0914 102.95 48.6844C102.635 49.3627 100.335 46.885 100.687 45.7353Z" fill="black"/>
<path d="M119.78 36.6738C117.572 40.9442 116.219 47.316 119.78 44.1301C121.333 42.6417 122.782 41.0595 124.118 39.3934L125.05 39.9552C123.558 41.8883 121.961 43.7469 120.266 45.5236C118.943 46.8271 117.614 47.9116 116.284 47.7711C114.077 47.6475 113.721 45.8438 113.91 43.9615C114.177 41.4892 115.37 39.1012 116.961 33.7801C117.863 33.4036 120.266 34.8701 119.78 36.6738ZM117.525 32.6507L118.498 29.5547C120.278 29.049 121.904 31.3527 121.156 32.735L117.525 32.6507Z" fill="black"/>
<path d="M135.355 36.5019C133.223 40.822 131.925 47.2681 135.355 44.045C136.848 42.5229 138.244 40.9092 139.534 39.2133L140.3 39.975C138.722 42.0555 137.528 43.6187 135.91 45.4036C134.629 46.7565 133.269 47.8991 131.988 47.774C129.856 47.6489 129.519 45.8243 129.702 43.92C129.825 42.8823 130.053 41.8596 130.382 40.8675C129.886 41.6314 129.346 42.3659 128.764 43.0673C127.524 44.5964 126.478 45.3411 125.397 45.4036C124.203 45.4434 123.602 44.7215 123.265 43.7892C122.665 41.9702 123.219 39.2986 124.203 37.2636C125.186 35.2285 127.101 33.1935 129.445 33.9609C130.422 34.2963 131.32 35.1888 131.703 36.8031C132 35.8709 132.274 34.8534 132.64 33.6256C133.549 33.1935 135.847 34.6772 135.355 36.5019ZM126.449 40.8675C126.449 42.7717 127.175 42.7717 128.238 42.0043C129.484 40.905 130.51 39.5821 131.262 38.1048C130.879 36.3995 130.159 35.5639 129.433 35.3934C128.198 35.0523 127.347 36.8372 127.044 37.7695C126.725 38.7747 126.533 39.8153 126.472 40.8675H126.449Z" fill="black"/>
<path d="M141.536 33.6612C142.837 33.0171 145.232 35.3348 144.984 36.4449C143.857 39.1077 142.629 42.0639 141.705 44.5543C145.086 39.378 146.917 37.8194 149.729 34.0466C150.613 33.6152 152.923 35.1163 152.416 36.9625C150.32 41.3335 149.036 47.8555 152.416 44.5945C153.903 43.0717 155.293 41.4522 156.575 39.7461L157.583 40.1775C156.112 42.2141 154.542 44.1739 152.878 46.0496C151.622 47.3839 150.36 48.4939 149.098 48.3502C147.001 48.2236 146.663 46.3774 146.872 44.4507C147.08 41.9201 148.218 39.4758 148.889 37.158C144.015 43.2027 140.488 48.3502 140.403 48.6952C140.11 49.3394 137.969 46.849 138.302 45.7333L141.536 33.6612Z" fill="black"/>
<path d="M162.139 35.1523C160.594 34.8137 159.011 38.9621 158.889 41.9571C158.73 45.3997 160.397 45.2506 162.293 43.7129C163.71 42.4451 164.974 40.9918 166.059 39.3867L166.733 39.9604C165.531 41.7066 164.206 43.3505 162.771 44.8776C161.909 45.7646 160.941 46.523 159.893 47.1325C159.637 47.3014 159.354 47.4181 159.059 47.4768C159.011 47.6307 158.972 47.7878 158.942 47.9472C161.433 47.8153 161.04 52.6062 158.071 52.8644C155.655 52.9505 156.446 50.5694 156.526 50.7243C157.017 51.0934 157.591 51.3152 158.188 51.3669C160.206 51.3669 159.972 47.9243 157.832 48.63L158.108 47.6432C156.919 47.6891 156.011 47.0063 155.692 45.3768C155.489 44.1167 155.504 42.8271 155.734 41.5727C156.127 39.0481 157.237 36.4088 158.666 34.94C160.562 32.9318 163.377 32.8859 164.168 36.2252C164.364 36.799 163.573 36.9539 163.414 36.6498C163.079 35.6686 162.612 35.1982 162.139 35.1523Z" fill="black"/>
<path d="M178.052 36.5019C175.918 40.822 174.619 47.2681 178.052 44.045C179.546 42.5229 180.943 40.9092 182.234 39.2133L183 39.975C181.421 42.0555 180.231 43.6187 178.607 45.4036C177.331 46.7565 175.964 47.8991 174.682 47.774C172.554 47.6489 172.211 45.8243 172.394 43.92C172.519 42.8827 172.747 41.8603 173.075 40.8675C172.58 41.6327 172.04 42.3673 171.456 43.0673C170.214 44.5964 169.167 45.3411 168.086 45.4036C166.89 45.4434 166.295 44.7215 165.952 43.7892C165.38 41.9702 165.912 39.2986 166.89 37.2636C167.869 35.2285 169.791 33.1935 172.136 33.9609C173.115 34.2963 174.013 35.1888 174.396 36.8031C174.694 35.8709 174.997 34.8534 175.334 33.6256C176.238 33.1935 178.538 34.6772 178.052 36.5019ZM169.139 40.8675C169.139 42.7717 169.865 42.7717 170.929 42.0043C172.176 40.9038 173.204 39.5812 173.961 38.1048C173.572 36.3995 172.851 35.5639 172.125 35.3934C170.889 35.0523 170.037 36.8372 169.739 37.7695C169.417 38.7742 169.221 39.8148 169.156 40.8675H169.139Z" fill="black"/>
</svg>
