<svg width="259" height="534" viewBox="0 0 259 534" fill="none" xmlns="http://www.w3.org/2000/svg">
<path d="M229.687 193.624C223.437 174.987 205.819 161.099 190.305 154.13C177.039 148.145 162.654 144.793 148.72 141.541C139.936 139.471 130.876 137.376 122.181 134.624C62.477 115.755 14.1542 61.7869 1.84807 0.321486L0.303209 0.638926C6.78056 31.9381 21.5164 60.9356 42.9746 84.6087C64.1586 108.521 91.3455 126.315 121.704 136.138C130.455 138.905 139.559 141.035 148.369 143.08C162.213 146.312 176.527 149.654 189.668 155.564C208.438 164.033 230.47 182.728 230.513 207.726C230.552 223.112 222.264 237.244 214.22 250.81C205.434 265.695 196.354 281.096 198.268 298.194C200.321 316.499 214.101 329.885 227.434 342.836C239.524 354.565 252.02 366.71 255.957 382.528C261.79 406.187 247.003 429.738 232.713 449.996L174.073 533.08L175.361 533.986L234.006 450.917C248.495 430.358 263.466 406.41 257.422 382.17C253.359 365.877 240.722 353.612 228.477 341.717C214.742 328.366 201.759 315.766 199.779 298.021C197.926 281.455 206.478 266.966 215.513 251.631C223.656 237.814 232.069 223.557 232.034 207.735C232.015 202.936 231.223 198.171 229.687 193.624Z" fill="#A1BEE5"/>
</svg>
