<svg width="21" height="16" viewBox="0 0 21 16" fill="none" xmlns="http://www.w3.org/2000/svg">
<path d="M20.4177 0.542877C20.062 0.195089 19.5862 0.000371513 19.091 2.74206e-05H1.90899C1.41309 -0.0026608 0.936361 0.192405 0.58228 0.542877C0.212236 0.906794 0.00251424 1.40547 0 1.92699V14.073C0 14.5841 0.201088 15.0742 0.55914 15.4356C0.917197 15.7969 1.40277 16 1.90899 16H19.091C19.5972 16 20.0828 15.7969 20.4409 15.4356C20.7989 15.0742 21 14.5841 21 14.073V1.92699C20.9997 1.40513 20.7896 0.905637 20.4177 0.542877ZM14.0507 6.87591L20.1599 1.22977C20.1972 1.28555 20.2292 1.34469 20.2555 1.40652C20.2566 1.4203 20.2566 1.43425 20.2555 1.44819C20.2793 1.50649 20.2984 1.56664 20.3127 1.62813V1.68913C20.3265 1.76423 20.334 1.8405 20.3349 1.91712V14.0726C20.3317 14.2996 20.2679 14.5214 20.1504 14.715L14.0507 6.87591ZM19.0907 0.642234C19.3011 0.644754 19.5079 0.700033 19.692 0.802856L11.3588 8.51054C11.1244 8.72626 10.8184 8.84589 10.5013 8.84589C10.184 8.84589 9.87826 8.72627 9.64371 8.51054L1.30753 0.802856C1.4923 0.701878 1.69872 0.647778 1.90877 0.645425L19.0907 0.642234ZM0.820323 14.7247C0.702801 14.5313 0.639046 14.3093 0.635884 14.0823V1.92682C0.636716 1.85037 0.644207 1.77409 0.658023 1.69882V1.63464C0.672839 1.57433 0.691982 1.51535 0.715289 1.45789C0.714123 1.44411 0.714123 1.43017 0.715289 1.41622C0.74159 1.35439 0.773551 1.29525 0.810838 1.23964L6.94856 6.87588L0.820323 14.7247ZM1.90847 15.367C1.68409 15.3667 1.46401 15.3045 1.27208 15.1872L7.41959 7.31911L9.21105 8.97303C9.56312 9.29881 10.0235 9.47958 10.5013 9.47958C10.979 9.47958 11.4393 9.2988 11.7915 8.97303L13.5796 7.31911L19.7238 15.1778C19.5318 15.2952 19.3119 15.3574 19.0873 15.3577L1.90847 15.367Z" fill="#C3B4D8"/>
</svg>
