<svg width="21" height="22" viewBox="0 0 21 22" fill="none" xmlns="http://www.w3.org/2000/svg">
<path d="M10.5085 0V8.0986H11.6128V10.4125H12.9674L13.1313 10.2136L14.9 8.09863H21V2.08848e-05L10.5085 0ZM11.6128 1.15705H19.8954V6.94176H14.3998L14.2359 7.14049L12.7173 8.95731V6.9418H11.6129L11.6128 1.15705ZM4.15844 1.49136L0.181029 5.65821L0 5.84807L0.0171398 6.11922C0.271346 9.46914 2.07778 13.3847 5.15037 16.604C8.22296 19.8233 11.9608 21.7066 15.1585 21.973L15.4087 22L15.5899 21.8104L19.179 18.0502L19.576 17.6435L15.2016 13.0608L14.8134 13.4675L12.6393 15.7454C11.3062 14.9493 10.0662 14.026 8.83443 12.7354C7.6023 11.4448 6.72144 10.1552 5.96131 8.75843L8.13559 6.4808L8.5325 6.07406L4.15844 1.49136ZM4.15844 3.1274L6.97112 6.07404L4.87469 8.26128L4.5812 8.56876L4.77975 8.94826C5.62289 10.5702 6.64199 12.0742 8.05827 13.558C9.47454 15.0417 10.9018 16.1093 12.4497 16.9926L12.8122 17.2006L13.1055 16.8932L15.2019 14.6969L18.0146 17.6435L15.0122 20.7798C12.2027 20.4726 8.75838 18.7477 5.92702 15.7816C3.0932 12.8128 1.45586 9.20869 1.16464 6.26416L4.15844 3.1274Z" fill="#C3B4D8"/>
</svg>
