<svg width="235" height="25" viewBox="0 0 235 25" fill="none" xmlns="http://www.w3.org/2000/svg">
<path d="M231.1 17.1C224.47 17.1 221.34 13.81 217.38 9.64C213.08 5.12 208.21 0 198.58 0C188.95 0 184.08 5.12 179.78 9.64C175.78 13.81 172.69 17.1 166.06 17.1C159.43 17.1 156.31 13.81 152.34 9.64C148.05 5.12 143.18 0 133.55 0C123.92 0 119.05 5.12 114.75 9.64C110.75 13.81 107.66 17.1 101.03 17.1C94.4 17.1 91.28 13.81 87.31 9.64C83 5.12 78.15 0 68.52 0C58.89 0 54 5.12 49.73 9.64C45.73 13.81 42.63 17.1 36.01 17.1C29.39 17.1 26.25 13.81 22.29 9.64C18 5.12 13.13 0 3.5 0C2.57174 0 1.6815 0.368749 1.02513 1.02513C0.368749 1.6815 0 2.57174 0 3.5C0 4.42826 0.368749 5.3185 1.02513 5.97487C1.6815 6.63125 2.57174 7 3.5 7C10.12 7 13.25 10.29 17.22 14.46C21.51 19 26.38 24.1 36 24.1C45.62 24.1 50.51 19 54.8 14.46C58.76 10.29 61.89 7 68.52 7C75.15 7 78.28 10.29 82.24 14.46C86.54 19 91.4 24.1 101 24.1C110.6 24.1 115.5 18.98 119.8 14.46C123.8 10.29 126.89 7 133.52 7C140.15 7 143.28 10.29 147.24 14.46C151.53 18.98 156.4 24.1 166.03 24.1C175.66 24.1 180.53 18.98 184.83 14.46C188.82 10.29 192 7 198.58 7C205.16 7 208.34 10.29 212.3 14.46C216.6 18.98 221.47 24.1 231.1 24.1C232.028 24.1 232.919 23.7313 233.575 23.0749C234.231 22.4185 234.6 21.5283 234.6 20.6C234.6 19.6717 234.231 18.7815 233.575 18.1251C232.919 17.4687 232.028 17.1 231.1 17.1Z" fill="white"/>
</svg>
